G04 #@! TF.GenerationSoftware,KiCad,Pcbnew,8.0.3*
G04 #@! TF.CreationDate,2025-02-02T14:21:44+13:00*
G04 #@! TF.ProjectId,2102_sram_tester,32313032-5f73-4726-916d-5f7465737465,rev?*
G04 #@! TF.SameCoordinates,Original*
G04 #@! TF.FileFunction,Soldermask,Top*
G04 #@! TF.FilePolarity,Negative*
%FSLAX46Y46*%
G04 Gerber Fmt 4.6, Leading zero omitted, Abs format (unit mm)*
G04 Created by KiCad (PCBNEW 8.0.3) date 2025-02-02 14:21:44*
%MOMM*%
%LPD*%
G01*
G04 APERTURE LIST*
%ADD10R,2.000000X1.440000*%
%ADD11O,2.000000X1.440000*%
%ADD12R,1.800000X1.800000*%
%ADD13C,1.800000*%
%ADD14C,3.200000*%
%ADD15R,1.600000X1.600000*%
%ADD16O,1.600000X1.600000*%
%ADD17C,1.400000*%
%ADD18O,1.400000X1.400000*%
%ADD19C,2.000000*%
G04 APERTURE END LIST*
D10*
X153670000Y-87376000D03*
D11*
X153670000Y-89916000D03*
X153670000Y-92456000D03*
X153670000Y-94996000D03*
X153670000Y-97536000D03*
X153670000Y-100076000D03*
X153670000Y-102616000D03*
X153670000Y-105156000D03*
X161290000Y-105156000D03*
X161290000Y-102616000D03*
X161290000Y-100076000D03*
X161290000Y-97536000D03*
X161290000Y-94996000D03*
X161290000Y-92456000D03*
X161290000Y-89916000D03*
X161290000Y-87376000D03*
D12*
X123190000Y-72136000D03*
D13*
X125730000Y-72136000D03*
D14*
X115570000Y-72136000D03*
D12*
X132080000Y-72136000D03*
D13*
X134620000Y-72136000D03*
D15*
X120150000Y-81096000D03*
D16*
X120150000Y-83636000D03*
X120150000Y-86176000D03*
X120150000Y-88716000D03*
X120150000Y-91256000D03*
X120150000Y-93796000D03*
X120150000Y-96336000D03*
X120150000Y-98876000D03*
X120150000Y-101416000D03*
X120150000Y-103956000D03*
X120150000Y-106496000D03*
X120150000Y-109036000D03*
X120150000Y-111576000D03*
X120150000Y-114116000D03*
X120150000Y-116656000D03*
X135390000Y-116656000D03*
X135390000Y-114116000D03*
X135390000Y-111576000D03*
X135390000Y-109036000D03*
X135390000Y-106496000D03*
X135390000Y-103956000D03*
X135390000Y-101416000D03*
X135390000Y-98876000D03*
X135390000Y-96336000D03*
X135390000Y-93796000D03*
X135390000Y-91256000D03*
X135390000Y-88716000D03*
X135390000Y-86176000D03*
X135390000Y-83636000D03*
X135390000Y-81096000D03*
D17*
X143510000Y-86106000D03*
D18*
X143510000Y-78486000D03*
D14*
X171450000Y-72136000D03*
X171450000Y-125476000D03*
D17*
X140970000Y-78486000D03*
D18*
X140970000Y-86106000D03*
D14*
X115570000Y-125476000D03*
D19*
X155500000Y-116256000D03*
X162000000Y-116256000D03*
X155500000Y-120756000D03*
X162000000Y-120756000D03*
M02*
