G04 #@! TF.GenerationSoftware,KiCad,Pcbnew,8.0.3*
G04 #@! TF.CreationDate,2025-02-02T14:21:44+13:00*
G04 #@! TF.ProjectId,2102_sram_tester,32313032-5f73-4726-916d-5f7465737465,rev?*
G04 #@! TF.SameCoordinates,Original*
G04 #@! TF.FileFunction,Legend,Top*
G04 #@! TF.FilePolarity,Positive*
%FSLAX46Y46*%
G04 Gerber Fmt 4.6, Leading zero omitted, Abs format (unit mm)*
G04 Created by KiCad (PCBNEW 8.0.3) date 2025-02-02 14:21:44*
%MOMM*%
%LPD*%
G01*
G04 APERTURE LIST*
%ADD10C,0.100000*%
%ADD11C,0.040000*%
%ADD12C,0.200000*%
%ADD13C,0.150000*%
%ADD14C,0.120000*%
%ADD15R,2.000000X1.440000*%
%ADD16O,2.000000X1.440000*%
%ADD17R,1.800000X1.800000*%
%ADD18C,1.800000*%
%ADD19C,3.200000*%
%ADD20R,1.600000X1.600000*%
%ADD21O,1.600000X1.600000*%
%ADD22C,1.400000*%
%ADD23O,1.400000X1.400000*%
%ADD24C,2.000000*%
G04 APERTURE END LIST*
D10*
X167640000Y-87376000D02*
X168529000Y-87376000D01*
X172339000Y-96266000D02*
X173228000Y-96266000D01*
X167640000Y-96266000D02*
X168529000Y-96266000D01*
X172339000Y-91059000D02*
X173228000Y-91059000D01*
X172339000Y-92329000D02*
X173228000Y-92329000D01*
X172339000Y-87376000D02*
X173228000Y-87376000D01*
X172339000Y-89916000D02*
X173228000Y-89916000D01*
X172339000Y-97028000D02*
X168529000Y-97028000D01*
X167640000Y-93599000D02*
X168529000Y-93599000D01*
X170815000Y-86741000D02*
X172339000Y-86741000D01*
X167640000Y-88646000D02*
X168529000Y-88646000D01*
X172339000Y-94996000D02*
X173228000Y-94996000D01*
X168529000Y-86741000D02*
X170180000Y-86741000D01*
X167640000Y-91059000D02*
X168529000Y-91059000D01*
X172339000Y-86741000D02*
X172339000Y-97028000D01*
X167640000Y-89916000D02*
X168529000Y-89916000D01*
X167640000Y-94996000D02*
X168529000Y-94996000D01*
X167640000Y-92329000D02*
X168529000Y-92329000D01*
X172339000Y-93599000D02*
X173228000Y-93599000D01*
X170815000Y-86741000D02*
G75*
G02*
X170180000Y-86741000I-317500J211666D01*
G01*
X168529000Y-97028000D02*
X168529000Y-86741000D01*
X172339000Y-88646000D02*
X173228000Y-88646000D01*
D11*
X167088457Y-87378491D02*
X167231315Y-87378491D01*
X167059886Y-87464205D02*
X167159886Y-87164205D01*
X167159886Y-87164205D02*
X167259886Y-87464205D01*
X167448458Y-87257348D02*
X167402743Y-87257348D01*
X167402743Y-87257348D02*
X167379886Y-87268777D01*
X167379886Y-87268777D02*
X167368458Y-87280205D01*
X167368458Y-87280205D02*
X167345600Y-87314491D01*
X167345600Y-87314491D02*
X167334172Y-87360205D01*
X167334172Y-87360205D02*
X167334172Y-87451634D01*
X167334172Y-87451634D02*
X167345600Y-87474491D01*
X167345600Y-87474491D02*
X167357029Y-87485920D01*
X167357029Y-87485920D02*
X167379886Y-87497348D01*
X167379886Y-87497348D02*
X167425600Y-87497348D01*
X167425600Y-87497348D02*
X167448458Y-87485920D01*
X167448458Y-87485920D02*
X167459886Y-87474491D01*
X167459886Y-87474491D02*
X167471315Y-87451634D01*
X167471315Y-87451634D02*
X167471315Y-87394491D01*
X167471315Y-87394491D02*
X167459886Y-87371634D01*
X167459886Y-87371634D02*
X167448458Y-87360205D01*
X167448458Y-87360205D02*
X167425600Y-87348777D01*
X167425600Y-87348777D02*
X167379886Y-87348777D01*
X167379886Y-87348777D02*
X167357029Y-87360205D01*
X167357029Y-87360205D02*
X167345600Y-87371634D01*
X167345600Y-87371634D02*
X167334172Y-87394491D01*
X167088457Y-96268491D02*
X167231315Y-96268491D01*
X167059886Y-96354205D02*
X167159886Y-96054205D01*
X167159886Y-96054205D02*
X167259886Y-96354205D01*
X167391315Y-96147348D02*
X167414172Y-96147348D01*
X167414172Y-96147348D02*
X167437029Y-96158777D01*
X167437029Y-96158777D02*
X167448458Y-96170205D01*
X167448458Y-96170205D02*
X167459886Y-96193062D01*
X167459886Y-96193062D02*
X167471315Y-96238777D01*
X167471315Y-96238777D02*
X167471315Y-96295920D01*
X167471315Y-96295920D02*
X167459886Y-96341634D01*
X167459886Y-96341634D02*
X167448458Y-96364491D01*
X167448458Y-96364491D02*
X167437029Y-96375920D01*
X167437029Y-96375920D02*
X167414172Y-96387348D01*
X167414172Y-96387348D02*
X167391315Y-96387348D01*
X167391315Y-96387348D02*
X167368458Y-96375920D01*
X167368458Y-96375920D02*
X167357029Y-96364491D01*
X167357029Y-96364491D02*
X167345600Y-96341634D01*
X167345600Y-96341634D02*
X167334172Y-96295920D01*
X167334172Y-96295920D02*
X167334172Y-96238777D01*
X167334172Y-96238777D02*
X167345600Y-96193062D01*
X167345600Y-96193062D02*
X167357029Y-96170205D01*
X167357029Y-96170205D02*
X167368458Y-96158777D01*
X167368458Y-96158777D02*
X167391315Y-96147348D01*
D12*
X156151054Y-123347838D02*
X157293911Y-123347838D01*
X156722482Y-125347838D02*
X156722482Y-123347838D01*
X158722483Y-125252600D02*
X158532007Y-125347838D01*
X158532007Y-125347838D02*
X158151054Y-125347838D01*
X158151054Y-125347838D02*
X157960578Y-125252600D01*
X157960578Y-125252600D02*
X157865340Y-125062123D01*
X157865340Y-125062123D02*
X157865340Y-124300219D01*
X157865340Y-124300219D02*
X157960578Y-124109742D01*
X157960578Y-124109742D02*
X158151054Y-124014504D01*
X158151054Y-124014504D02*
X158532007Y-124014504D01*
X158532007Y-124014504D02*
X158722483Y-124109742D01*
X158722483Y-124109742D02*
X158817721Y-124300219D01*
X158817721Y-124300219D02*
X158817721Y-124490695D01*
X158817721Y-124490695D02*
X157865340Y-124681171D01*
X159579626Y-125252600D02*
X159770102Y-125347838D01*
X159770102Y-125347838D02*
X160151054Y-125347838D01*
X160151054Y-125347838D02*
X160341531Y-125252600D01*
X160341531Y-125252600D02*
X160436769Y-125062123D01*
X160436769Y-125062123D02*
X160436769Y-124966885D01*
X160436769Y-124966885D02*
X160341531Y-124776409D01*
X160341531Y-124776409D02*
X160151054Y-124681171D01*
X160151054Y-124681171D02*
X159865340Y-124681171D01*
X159865340Y-124681171D02*
X159674864Y-124585933D01*
X159674864Y-124585933D02*
X159579626Y-124395457D01*
X159579626Y-124395457D02*
X159579626Y-124300219D01*
X159579626Y-124300219D02*
X159674864Y-124109742D01*
X159674864Y-124109742D02*
X159865340Y-124014504D01*
X159865340Y-124014504D02*
X160151054Y-124014504D01*
X160151054Y-124014504D02*
X160341531Y-124109742D01*
X161008198Y-124014504D02*
X161770102Y-124014504D01*
X161293912Y-123347838D02*
X161293912Y-125062123D01*
X161293912Y-125062123D02*
X161389150Y-125252600D01*
X161389150Y-125252600D02*
X161579626Y-125347838D01*
X161579626Y-125347838D02*
X161770102Y-125347838D01*
X139831530Y-71214314D02*
X139926768Y-71119076D01*
X139926768Y-71119076D02*
X140117244Y-71023838D01*
X140117244Y-71023838D02*
X140593435Y-71023838D01*
X140593435Y-71023838D02*
X140783911Y-71119076D01*
X140783911Y-71119076D02*
X140879149Y-71214314D01*
X140879149Y-71214314D02*
X140974387Y-71404790D01*
X140974387Y-71404790D02*
X140974387Y-71595266D01*
X140974387Y-71595266D02*
X140879149Y-71880980D01*
X140879149Y-71880980D02*
X139736292Y-73023838D01*
X139736292Y-73023838D02*
X140974387Y-73023838D01*
X142879149Y-73023838D02*
X141736292Y-73023838D01*
X142307720Y-73023838D02*
X142307720Y-71023838D01*
X142307720Y-71023838D02*
X142117244Y-71309552D01*
X142117244Y-71309552D02*
X141926768Y-71500028D01*
X141926768Y-71500028D02*
X141736292Y-71595266D01*
X144117244Y-71023838D02*
X144307721Y-71023838D01*
X144307721Y-71023838D02*
X144498197Y-71119076D01*
X144498197Y-71119076D02*
X144593435Y-71214314D01*
X144593435Y-71214314D02*
X144688673Y-71404790D01*
X144688673Y-71404790D02*
X144783911Y-71785742D01*
X144783911Y-71785742D02*
X144783911Y-72261933D01*
X144783911Y-72261933D02*
X144688673Y-72642885D01*
X144688673Y-72642885D02*
X144593435Y-72833361D01*
X144593435Y-72833361D02*
X144498197Y-72928600D01*
X144498197Y-72928600D02*
X144307721Y-73023838D01*
X144307721Y-73023838D02*
X144117244Y-73023838D01*
X144117244Y-73023838D02*
X143926768Y-72928600D01*
X143926768Y-72928600D02*
X143831530Y-72833361D01*
X143831530Y-72833361D02*
X143736292Y-72642885D01*
X143736292Y-72642885D02*
X143641054Y-72261933D01*
X143641054Y-72261933D02*
X143641054Y-71785742D01*
X143641054Y-71785742D02*
X143736292Y-71404790D01*
X143736292Y-71404790D02*
X143831530Y-71214314D01*
X143831530Y-71214314D02*
X143926768Y-71119076D01*
X143926768Y-71119076D02*
X144117244Y-71023838D01*
X145545816Y-71214314D02*
X145641054Y-71119076D01*
X145641054Y-71119076D02*
X145831530Y-71023838D01*
X145831530Y-71023838D02*
X146307721Y-71023838D01*
X146307721Y-71023838D02*
X146498197Y-71119076D01*
X146498197Y-71119076D02*
X146593435Y-71214314D01*
X146593435Y-71214314D02*
X146688673Y-71404790D01*
X146688673Y-71404790D02*
X146688673Y-71595266D01*
X146688673Y-71595266D02*
X146593435Y-71880980D01*
X146593435Y-71880980D02*
X145450578Y-73023838D01*
X145450578Y-73023838D02*
X146688673Y-73023838D01*
X148974388Y-72928600D02*
X149260102Y-73023838D01*
X149260102Y-73023838D02*
X149736293Y-73023838D01*
X149736293Y-73023838D02*
X149926769Y-72928600D01*
X149926769Y-72928600D02*
X150022007Y-72833361D01*
X150022007Y-72833361D02*
X150117245Y-72642885D01*
X150117245Y-72642885D02*
X150117245Y-72452409D01*
X150117245Y-72452409D02*
X150022007Y-72261933D01*
X150022007Y-72261933D02*
X149926769Y-72166695D01*
X149926769Y-72166695D02*
X149736293Y-72071457D01*
X149736293Y-72071457D02*
X149355340Y-71976219D01*
X149355340Y-71976219D02*
X149164864Y-71880980D01*
X149164864Y-71880980D02*
X149069626Y-71785742D01*
X149069626Y-71785742D02*
X148974388Y-71595266D01*
X148974388Y-71595266D02*
X148974388Y-71404790D01*
X148974388Y-71404790D02*
X149069626Y-71214314D01*
X149069626Y-71214314D02*
X149164864Y-71119076D01*
X149164864Y-71119076D02*
X149355340Y-71023838D01*
X149355340Y-71023838D02*
X149831531Y-71023838D01*
X149831531Y-71023838D02*
X150117245Y-71119076D01*
X152117245Y-73023838D02*
X151450578Y-72071457D01*
X150974388Y-73023838D02*
X150974388Y-71023838D01*
X150974388Y-71023838D02*
X151736293Y-71023838D01*
X151736293Y-71023838D02*
X151926769Y-71119076D01*
X151926769Y-71119076D02*
X152022007Y-71214314D01*
X152022007Y-71214314D02*
X152117245Y-71404790D01*
X152117245Y-71404790D02*
X152117245Y-71690504D01*
X152117245Y-71690504D02*
X152022007Y-71880980D01*
X152022007Y-71880980D02*
X151926769Y-71976219D01*
X151926769Y-71976219D02*
X151736293Y-72071457D01*
X151736293Y-72071457D02*
X150974388Y-72071457D01*
X152879150Y-72452409D02*
X153831531Y-72452409D01*
X152688674Y-73023838D02*
X153355340Y-71023838D01*
X153355340Y-71023838D02*
X154022007Y-73023838D01*
X154688674Y-73023838D02*
X154688674Y-71023838D01*
X154688674Y-71023838D02*
X155355341Y-72452409D01*
X155355341Y-72452409D02*
X156022007Y-71023838D01*
X156022007Y-71023838D02*
X156022007Y-73023838D01*
X158212484Y-71023838D02*
X159355341Y-71023838D01*
X158783912Y-73023838D02*
X158783912Y-71023838D01*
X160783913Y-72928600D02*
X160593437Y-73023838D01*
X160593437Y-73023838D02*
X160212484Y-73023838D01*
X160212484Y-73023838D02*
X160022008Y-72928600D01*
X160022008Y-72928600D02*
X159926770Y-72738123D01*
X159926770Y-72738123D02*
X159926770Y-71976219D01*
X159926770Y-71976219D02*
X160022008Y-71785742D01*
X160022008Y-71785742D02*
X160212484Y-71690504D01*
X160212484Y-71690504D02*
X160593437Y-71690504D01*
X160593437Y-71690504D02*
X160783913Y-71785742D01*
X160783913Y-71785742D02*
X160879151Y-71976219D01*
X160879151Y-71976219D02*
X160879151Y-72166695D01*
X160879151Y-72166695D02*
X159926770Y-72357171D01*
X161641056Y-72928600D02*
X161831532Y-73023838D01*
X161831532Y-73023838D02*
X162212484Y-73023838D01*
X162212484Y-73023838D02*
X162402961Y-72928600D01*
X162402961Y-72928600D02*
X162498199Y-72738123D01*
X162498199Y-72738123D02*
X162498199Y-72642885D01*
X162498199Y-72642885D02*
X162402961Y-72452409D01*
X162402961Y-72452409D02*
X162212484Y-72357171D01*
X162212484Y-72357171D02*
X161926770Y-72357171D01*
X161926770Y-72357171D02*
X161736294Y-72261933D01*
X161736294Y-72261933D02*
X161641056Y-72071457D01*
X161641056Y-72071457D02*
X161641056Y-71976219D01*
X161641056Y-71976219D02*
X161736294Y-71785742D01*
X161736294Y-71785742D02*
X161926770Y-71690504D01*
X161926770Y-71690504D02*
X162212484Y-71690504D01*
X162212484Y-71690504D02*
X162402961Y-71785742D01*
X163069628Y-71690504D02*
X163831532Y-71690504D01*
X163355342Y-71023838D02*
X163355342Y-72738123D01*
X163355342Y-72738123D02*
X163450580Y-72928600D01*
X163450580Y-72928600D02*
X163641056Y-73023838D01*
X163641056Y-73023838D02*
X163831532Y-73023838D01*
X165260104Y-72928600D02*
X165069628Y-73023838D01*
X165069628Y-73023838D02*
X164688675Y-73023838D01*
X164688675Y-73023838D02*
X164498199Y-72928600D01*
X164498199Y-72928600D02*
X164402961Y-72738123D01*
X164402961Y-72738123D02*
X164402961Y-71976219D01*
X164402961Y-71976219D02*
X164498199Y-71785742D01*
X164498199Y-71785742D02*
X164688675Y-71690504D01*
X164688675Y-71690504D02*
X165069628Y-71690504D01*
X165069628Y-71690504D02*
X165260104Y-71785742D01*
X165260104Y-71785742D02*
X165355342Y-71976219D01*
X165355342Y-71976219D02*
X165355342Y-72166695D01*
X165355342Y-72166695D02*
X164402961Y-72357171D01*
X166212485Y-73023838D02*
X166212485Y-71690504D01*
X166212485Y-72071457D02*
X166307723Y-71880980D01*
X166307723Y-71880980D02*
X166402961Y-71785742D01*
X166402961Y-71785742D02*
X166593437Y-71690504D01*
X166593437Y-71690504D02*
X166783914Y-71690504D01*
D11*
X166893172Y-90004205D02*
X166793172Y-89861348D01*
X166721743Y-90004205D02*
X166721743Y-89704205D01*
X166721743Y-89704205D02*
X166836029Y-89704205D01*
X166836029Y-89704205D02*
X166864600Y-89718491D01*
X166864600Y-89718491D02*
X166878886Y-89732777D01*
X166878886Y-89732777D02*
X166893172Y-89761348D01*
X166893172Y-89761348D02*
X166893172Y-89804205D01*
X166893172Y-89804205D02*
X166878886Y-89832777D01*
X166878886Y-89832777D02*
X166864600Y-89847062D01*
X166864600Y-89847062D02*
X166836029Y-89861348D01*
X166836029Y-89861348D02*
X166721743Y-89861348D01*
X167236029Y-89689920D02*
X166978886Y-90075634D01*
X167307458Y-89704205D02*
X167378886Y-90004205D01*
X167378886Y-90004205D02*
X167436029Y-89789920D01*
X167436029Y-89789920D02*
X167493172Y-90004205D01*
X167493172Y-90004205D02*
X167564601Y-89704205D01*
X167294601Y-89620920D02*
X167577458Y-89620920D01*
X167088457Y-92331491D02*
X167231315Y-92331491D01*
X167059886Y-92417205D02*
X167159886Y-92117205D01*
X167159886Y-92117205D02*
X167259886Y-92417205D01*
X167334172Y-92233205D02*
X167345600Y-92221777D01*
X167345600Y-92221777D02*
X167368458Y-92210348D01*
X167368458Y-92210348D02*
X167425600Y-92210348D01*
X167425600Y-92210348D02*
X167448458Y-92221777D01*
X167448458Y-92221777D02*
X167459886Y-92233205D01*
X167459886Y-92233205D02*
X167471315Y-92256062D01*
X167471315Y-92256062D02*
X167471315Y-92278920D01*
X167471315Y-92278920D02*
X167459886Y-92313205D01*
X167459886Y-92313205D02*
X167322743Y-92450348D01*
X167322743Y-92450348D02*
X167471315Y-92450348D01*
X173409886Y-94784205D02*
X173509886Y-95084205D01*
X173509886Y-95084205D02*
X173609886Y-94784205D01*
X173798458Y-95105920D02*
X173775600Y-95117348D01*
X173775600Y-95117348D02*
X173729886Y-95117348D01*
X173729886Y-95117348D02*
X173707029Y-95105920D01*
X173707029Y-95105920D02*
X173695600Y-95094491D01*
X173695600Y-95094491D02*
X173684172Y-95071634D01*
X173684172Y-95071634D02*
X173684172Y-95003062D01*
X173684172Y-95003062D02*
X173695600Y-94980205D01*
X173695600Y-94980205D02*
X173707029Y-94968777D01*
X173707029Y-94968777D02*
X173729886Y-94957348D01*
X173729886Y-94957348D02*
X173775600Y-94957348D01*
X173775600Y-94957348D02*
X173798458Y-94968777D01*
X174004172Y-95105920D02*
X173981314Y-95117348D01*
X173981314Y-95117348D02*
X173935600Y-95117348D01*
X173935600Y-95117348D02*
X173912743Y-95105920D01*
X173912743Y-95105920D02*
X173901314Y-95094491D01*
X173901314Y-95094491D02*
X173889886Y-95071634D01*
X173889886Y-95071634D02*
X173889886Y-95003062D01*
X173889886Y-95003062D02*
X173901314Y-94980205D01*
X173901314Y-94980205D02*
X173912743Y-94968777D01*
X173912743Y-94968777D02*
X173935600Y-94957348D01*
X173935600Y-94957348D02*
X173981314Y-94957348D01*
X173981314Y-94957348D02*
X174004172Y-94968777D01*
X173452743Y-92417205D02*
X173452743Y-92117205D01*
X173452743Y-92117205D02*
X173524172Y-92117205D01*
X173524172Y-92117205D02*
X173567029Y-92131491D01*
X173567029Y-92131491D02*
X173595600Y-92160062D01*
X173595600Y-92160062D02*
X173609886Y-92188634D01*
X173609886Y-92188634D02*
X173624172Y-92245777D01*
X173624172Y-92245777D02*
X173624172Y-92288634D01*
X173624172Y-92288634D02*
X173609886Y-92345777D01*
X173609886Y-92345777D02*
X173595600Y-92374348D01*
X173595600Y-92374348D02*
X173567029Y-92402920D01*
X173567029Y-92402920D02*
X173524172Y-92417205D01*
X173524172Y-92417205D02*
X173452743Y-92417205D01*
X173772743Y-92450348D02*
X173749886Y-92438920D01*
X173749886Y-92438920D02*
X173738457Y-92427491D01*
X173738457Y-92427491D02*
X173727029Y-92404634D01*
X173727029Y-92404634D02*
X173727029Y-92336062D01*
X173727029Y-92336062D02*
X173738457Y-92313205D01*
X173738457Y-92313205D02*
X173749886Y-92301777D01*
X173749886Y-92301777D02*
X173772743Y-92290348D01*
X173772743Y-92290348D02*
X173807029Y-92290348D01*
X173807029Y-92290348D02*
X173829886Y-92301777D01*
X173829886Y-92301777D02*
X173841315Y-92313205D01*
X173841315Y-92313205D02*
X173852743Y-92336062D01*
X173852743Y-92336062D02*
X173852743Y-92404634D01*
X173852743Y-92404634D02*
X173841315Y-92427491D01*
X173841315Y-92427491D02*
X173829886Y-92438920D01*
X173829886Y-92438920D02*
X173807029Y-92450348D01*
X173807029Y-92450348D02*
X173772743Y-92450348D01*
X174058458Y-92290348D02*
X174058458Y-92450348D01*
X173955600Y-92290348D02*
X173955600Y-92416062D01*
X173955600Y-92416062D02*
X173967029Y-92438920D01*
X173967029Y-92438920D02*
X173989886Y-92450348D01*
X173989886Y-92450348D02*
X174024172Y-92450348D01*
X174024172Y-92450348D02*
X174047029Y-92438920D01*
X174047029Y-92438920D02*
X174058458Y-92427491D01*
X174138458Y-92290348D02*
X174229886Y-92290348D01*
X174172743Y-92210348D02*
X174172743Y-92416062D01*
X174172743Y-92416062D02*
X174184172Y-92438920D01*
X174184172Y-92438920D02*
X174207029Y-92450348D01*
X174207029Y-92450348D02*
X174229886Y-92450348D01*
X167088457Y-88648491D02*
X167231315Y-88648491D01*
X167059886Y-88734205D02*
X167159886Y-88434205D01*
X167159886Y-88434205D02*
X167259886Y-88734205D01*
X167459886Y-88527348D02*
X167345600Y-88527348D01*
X167345600Y-88527348D02*
X167334172Y-88641634D01*
X167334172Y-88641634D02*
X167345600Y-88630205D01*
X167345600Y-88630205D02*
X167368458Y-88618777D01*
X167368458Y-88618777D02*
X167425600Y-88618777D01*
X167425600Y-88618777D02*
X167448458Y-88630205D01*
X167448458Y-88630205D02*
X167459886Y-88641634D01*
X167459886Y-88641634D02*
X167471315Y-88664491D01*
X167471315Y-88664491D02*
X167471315Y-88721634D01*
X167471315Y-88721634D02*
X167459886Y-88744491D01*
X167459886Y-88744491D02*
X167448458Y-88755920D01*
X167448458Y-88755920D02*
X167425600Y-88767348D01*
X167425600Y-88767348D02*
X167368458Y-88767348D01*
X167368458Y-88767348D02*
X167345600Y-88755920D01*
X167345600Y-88755920D02*
X167334172Y-88744491D01*
D10*
X122985884Y-75564419D02*
X122985884Y-74564419D01*
X122985884Y-74564419D02*
X123366836Y-74564419D01*
X123366836Y-74564419D02*
X123462074Y-74612038D01*
X123462074Y-74612038D02*
X123509693Y-74659657D01*
X123509693Y-74659657D02*
X123557312Y-74754895D01*
X123557312Y-74754895D02*
X123557312Y-74897752D01*
X123557312Y-74897752D02*
X123509693Y-74992990D01*
X123509693Y-74992990D02*
X123462074Y-75040609D01*
X123462074Y-75040609D02*
X123366836Y-75088228D01*
X123366836Y-75088228D02*
X122985884Y-75088228D01*
X124414455Y-75564419D02*
X124414455Y-75040609D01*
X124414455Y-75040609D02*
X124366836Y-74945371D01*
X124366836Y-74945371D02*
X124271598Y-74897752D01*
X124271598Y-74897752D02*
X124081122Y-74897752D01*
X124081122Y-74897752D02*
X123985884Y-74945371D01*
X124414455Y-75516800D02*
X124319217Y-75564419D01*
X124319217Y-75564419D02*
X124081122Y-75564419D01*
X124081122Y-75564419D02*
X123985884Y-75516800D01*
X123985884Y-75516800D02*
X123938265Y-75421561D01*
X123938265Y-75421561D02*
X123938265Y-75326323D01*
X123938265Y-75326323D02*
X123985884Y-75231085D01*
X123985884Y-75231085D02*
X124081122Y-75183466D01*
X124081122Y-75183466D02*
X124319217Y-75183466D01*
X124319217Y-75183466D02*
X124414455Y-75135847D01*
X124843027Y-75516800D02*
X124938265Y-75564419D01*
X124938265Y-75564419D02*
X125128741Y-75564419D01*
X125128741Y-75564419D02*
X125223979Y-75516800D01*
X125223979Y-75516800D02*
X125271598Y-75421561D01*
X125271598Y-75421561D02*
X125271598Y-75373942D01*
X125271598Y-75373942D02*
X125223979Y-75278704D01*
X125223979Y-75278704D02*
X125128741Y-75231085D01*
X125128741Y-75231085D02*
X124985884Y-75231085D01*
X124985884Y-75231085D02*
X124890646Y-75183466D01*
X124890646Y-75183466D02*
X124843027Y-75088228D01*
X124843027Y-75088228D02*
X124843027Y-75040609D01*
X124843027Y-75040609D02*
X124890646Y-74945371D01*
X124890646Y-74945371D02*
X124985884Y-74897752D01*
X124985884Y-74897752D02*
X125128741Y-74897752D01*
X125128741Y-74897752D02*
X125223979Y-74945371D01*
X125652551Y-75516800D02*
X125747789Y-75564419D01*
X125747789Y-75564419D02*
X125938265Y-75564419D01*
X125938265Y-75564419D02*
X126033503Y-75516800D01*
X126033503Y-75516800D02*
X126081122Y-75421561D01*
X126081122Y-75421561D02*
X126081122Y-75373942D01*
X126081122Y-75373942D02*
X126033503Y-75278704D01*
X126033503Y-75278704D02*
X125938265Y-75231085D01*
X125938265Y-75231085D02*
X125795408Y-75231085D01*
X125795408Y-75231085D02*
X125700170Y-75183466D01*
X125700170Y-75183466D02*
X125652551Y-75088228D01*
X125652551Y-75088228D02*
X125652551Y-75040609D01*
X125652551Y-75040609D02*
X125700170Y-74945371D01*
X125700170Y-74945371D02*
X125795408Y-74897752D01*
X125795408Y-74897752D02*
X125938265Y-74897752D01*
X125938265Y-74897752D02*
X126033503Y-74945371D01*
D11*
X173452743Y-93687205D02*
X173452743Y-93387205D01*
X173452743Y-93387205D02*
X173524172Y-93387205D01*
X173524172Y-93387205D02*
X173567029Y-93401491D01*
X173567029Y-93401491D02*
X173595600Y-93430062D01*
X173595600Y-93430062D02*
X173609886Y-93458634D01*
X173609886Y-93458634D02*
X173624172Y-93515777D01*
X173624172Y-93515777D02*
X173624172Y-93558634D01*
X173624172Y-93558634D02*
X173609886Y-93615777D01*
X173609886Y-93615777D02*
X173595600Y-93644348D01*
X173595600Y-93644348D02*
X173567029Y-93672920D01*
X173567029Y-93672920D02*
X173524172Y-93687205D01*
X173524172Y-93687205D02*
X173452743Y-93687205D01*
X173738457Y-93720348D02*
X173738457Y-93560348D01*
X173738457Y-93480348D02*
X173727029Y-93491777D01*
X173727029Y-93491777D02*
X173738457Y-93503205D01*
X173738457Y-93503205D02*
X173749886Y-93491777D01*
X173749886Y-93491777D02*
X173738457Y-93480348D01*
X173738457Y-93480348D02*
X173738457Y-93503205D01*
X173852743Y-93560348D02*
X173852743Y-93720348D01*
X173852743Y-93583205D02*
X173864172Y-93571777D01*
X173864172Y-93571777D02*
X173887029Y-93560348D01*
X173887029Y-93560348D02*
X173921315Y-93560348D01*
X173921315Y-93560348D02*
X173944172Y-93571777D01*
X173944172Y-93571777D02*
X173955601Y-93594634D01*
X173955601Y-93594634D02*
X173955601Y-93720348D01*
X173609886Y-96068491D02*
X173581315Y-96054205D01*
X173581315Y-96054205D02*
X173538457Y-96054205D01*
X173538457Y-96054205D02*
X173495600Y-96068491D01*
X173495600Y-96068491D02*
X173467029Y-96097062D01*
X173467029Y-96097062D02*
X173452743Y-96125634D01*
X173452743Y-96125634D02*
X173438457Y-96182777D01*
X173438457Y-96182777D02*
X173438457Y-96225634D01*
X173438457Y-96225634D02*
X173452743Y-96282777D01*
X173452743Y-96282777D02*
X173467029Y-96311348D01*
X173467029Y-96311348D02*
X173495600Y-96339920D01*
X173495600Y-96339920D02*
X173538457Y-96354205D01*
X173538457Y-96354205D02*
X173567029Y-96354205D01*
X173567029Y-96354205D02*
X173609886Y-96339920D01*
X173609886Y-96339920D02*
X173624172Y-96325634D01*
X173624172Y-96325634D02*
X173624172Y-96225634D01*
X173624172Y-96225634D02*
X173567029Y-96225634D01*
X173752743Y-96354205D02*
X173752743Y-96054205D01*
X173752743Y-96054205D02*
X173924172Y-96354205D01*
X173924172Y-96354205D02*
X173924172Y-96054205D01*
X174067029Y-96354205D02*
X174067029Y-96054205D01*
X174067029Y-96054205D02*
X174138458Y-96054205D01*
X174138458Y-96054205D02*
X174181315Y-96068491D01*
X174181315Y-96068491D02*
X174209886Y-96097062D01*
X174209886Y-96097062D02*
X174224172Y-96125634D01*
X174224172Y-96125634D02*
X174238458Y-96182777D01*
X174238458Y-96182777D02*
X174238458Y-96225634D01*
X174238458Y-96225634D02*
X174224172Y-96282777D01*
X174224172Y-96282777D02*
X174209886Y-96311348D01*
X174209886Y-96311348D02*
X174181315Y-96339920D01*
X174181315Y-96339920D02*
X174138458Y-96354205D01*
X174138458Y-96354205D02*
X174067029Y-96354205D01*
X167088457Y-91061491D02*
X167231315Y-91061491D01*
X167059886Y-91147205D02*
X167159886Y-90847205D01*
X167159886Y-90847205D02*
X167259886Y-91147205D01*
X167471315Y-91180348D02*
X167334172Y-91180348D01*
X167402743Y-91180348D02*
X167402743Y-90940348D01*
X167402743Y-90940348D02*
X167379886Y-90974634D01*
X167379886Y-90974634D02*
X167357029Y-90997491D01*
X167357029Y-90997491D02*
X167334172Y-91008920D01*
X167088457Y-93601491D02*
X167231315Y-93601491D01*
X167059886Y-93687205D02*
X167159886Y-93387205D01*
X167159886Y-93387205D02*
X167259886Y-93687205D01*
X167322743Y-93480348D02*
X167471315Y-93480348D01*
X167471315Y-93480348D02*
X167391315Y-93571777D01*
X167391315Y-93571777D02*
X167425600Y-93571777D01*
X167425600Y-93571777D02*
X167448458Y-93583205D01*
X167448458Y-93583205D02*
X167459886Y-93594634D01*
X167459886Y-93594634D02*
X167471315Y-93617491D01*
X167471315Y-93617491D02*
X167471315Y-93674634D01*
X167471315Y-93674634D02*
X167459886Y-93697491D01*
X167459886Y-93697491D02*
X167448458Y-93708920D01*
X167448458Y-93708920D02*
X167425600Y-93720348D01*
X167425600Y-93720348D02*
X167357029Y-93720348D01*
X167357029Y-93720348D02*
X167334172Y-93708920D01*
X167334172Y-93708920D02*
X167322743Y-93697491D01*
X167088457Y-94998491D02*
X167231315Y-94998491D01*
X167059886Y-95084205D02*
X167159886Y-94784205D01*
X167159886Y-94784205D02*
X167259886Y-95084205D01*
X167448458Y-94957348D02*
X167448458Y-95117348D01*
X167391315Y-94865920D02*
X167334172Y-95037348D01*
X167334172Y-95037348D02*
X167482743Y-95037348D01*
X173438457Y-88648491D02*
X173581315Y-88648491D01*
X173409886Y-88734205D02*
X173509886Y-88434205D01*
X173509886Y-88434205D02*
X173609886Y-88734205D01*
X173729886Y-88630205D02*
X173707029Y-88618777D01*
X173707029Y-88618777D02*
X173695600Y-88607348D01*
X173695600Y-88607348D02*
X173684172Y-88584491D01*
X173684172Y-88584491D02*
X173684172Y-88573062D01*
X173684172Y-88573062D02*
X173695600Y-88550205D01*
X173695600Y-88550205D02*
X173707029Y-88538777D01*
X173707029Y-88538777D02*
X173729886Y-88527348D01*
X173729886Y-88527348D02*
X173775600Y-88527348D01*
X173775600Y-88527348D02*
X173798458Y-88538777D01*
X173798458Y-88538777D02*
X173809886Y-88550205D01*
X173809886Y-88550205D02*
X173821315Y-88573062D01*
X173821315Y-88573062D02*
X173821315Y-88584491D01*
X173821315Y-88584491D02*
X173809886Y-88607348D01*
X173809886Y-88607348D02*
X173798458Y-88618777D01*
X173798458Y-88618777D02*
X173775600Y-88630205D01*
X173775600Y-88630205D02*
X173729886Y-88630205D01*
X173729886Y-88630205D02*
X173707029Y-88641634D01*
X173707029Y-88641634D02*
X173695600Y-88653062D01*
X173695600Y-88653062D02*
X173684172Y-88675920D01*
X173684172Y-88675920D02*
X173684172Y-88721634D01*
X173684172Y-88721634D02*
X173695600Y-88744491D01*
X173695600Y-88744491D02*
X173707029Y-88755920D01*
X173707029Y-88755920D02*
X173729886Y-88767348D01*
X173729886Y-88767348D02*
X173775600Y-88767348D01*
X173775600Y-88767348D02*
X173798458Y-88755920D01*
X173798458Y-88755920D02*
X173809886Y-88744491D01*
X173809886Y-88744491D02*
X173821315Y-88721634D01*
X173821315Y-88721634D02*
X173821315Y-88675920D01*
X173821315Y-88675920D02*
X173809886Y-88653062D01*
X173809886Y-88653062D02*
X173798458Y-88641634D01*
X173798458Y-88641634D02*
X173775600Y-88630205D01*
X173438457Y-87378491D02*
X173581315Y-87378491D01*
X173409886Y-87464205D02*
X173509886Y-87164205D01*
X173509886Y-87164205D02*
X173609886Y-87464205D01*
X173672743Y-87257348D02*
X173832743Y-87257348D01*
X173832743Y-87257348D02*
X173729886Y-87497348D01*
X173624172Y-91118634D02*
X173609886Y-91132920D01*
X173609886Y-91132920D02*
X173567029Y-91147205D01*
X173567029Y-91147205D02*
X173538457Y-91147205D01*
X173538457Y-91147205D02*
X173495600Y-91132920D01*
X173495600Y-91132920D02*
X173467029Y-91104348D01*
X173467029Y-91104348D02*
X173452743Y-91075777D01*
X173452743Y-91075777D02*
X173438457Y-91018634D01*
X173438457Y-91018634D02*
X173438457Y-90975777D01*
X173438457Y-90975777D02*
X173452743Y-90918634D01*
X173452743Y-90918634D02*
X173467029Y-90890062D01*
X173467029Y-90890062D02*
X173495600Y-90861491D01*
X173495600Y-90861491D02*
X173538457Y-90847205D01*
X173538457Y-90847205D02*
X173567029Y-90847205D01*
X173567029Y-90847205D02*
X173609886Y-90861491D01*
X173609886Y-90861491D02*
X173624172Y-90875777D01*
X173738457Y-91132920D02*
X173781315Y-91147205D01*
X173781315Y-91147205D02*
X173852743Y-91147205D01*
X173852743Y-91147205D02*
X173881315Y-91132920D01*
X173881315Y-91132920D02*
X173895600Y-91118634D01*
X173895600Y-91118634D02*
X173909886Y-91090062D01*
X173909886Y-91090062D02*
X173909886Y-91061491D01*
X173909886Y-91061491D02*
X173895600Y-91032920D01*
X173895600Y-91032920D02*
X173881315Y-91018634D01*
X173881315Y-91018634D02*
X173852743Y-91004348D01*
X173852743Y-91004348D02*
X173795600Y-90990062D01*
X173795600Y-90990062D02*
X173767029Y-90975777D01*
X173767029Y-90975777D02*
X173752743Y-90961491D01*
X173752743Y-90961491D02*
X173738457Y-90932920D01*
X173738457Y-90932920D02*
X173738457Y-90904348D01*
X173738457Y-90904348D02*
X173752743Y-90875777D01*
X173752743Y-90875777D02*
X173767029Y-90861491D01*
X173767029Y-90861491D02*
X173795600Y-90847205D01*
X173795600Y-90847205D02*
X173867029Y-90847205D01*
X173867029Y-90847205D02*
X173909886Y-90861491D01*
X173411315Y-90763920D02*
X173937029Y-90763920D01*
D10*
X132590217Y-75040609D02*
X132256884Y-75040609D01*
X132256884Y-75564419D02*
X132256884Y-74564419D01*
X132256884Y-74564419D02*
X132733074Y-74564419D01*
X133542598Y-75564419D02*
X133542598Y-75040609D01*
X133542598Y-75040609D02*
X133494979Y-74945371D01*
X133494979Y-74945371D02*
X133399741Y-74897752D01*
X133399741Y-74897752D02*
X133209265Y-74897752D01*
X133209265Y-74897752D02*
X133114027Y-74945371D01*
X133542598Y-75516800D02*
X133447360Y-75564419D01*
X133447360Y-75564419D02*
X133209265Y-75564419D01*
X133209265Y-75564419D02*
X133114027Y-75516800D01*
X133114027Y-75516800D02*
X133066408Y-75421561D01*
X133066408Y-75421561D02*
X133066408Y-75326323D01*
X133066408Y-75326323D02*
X133114027Y-75231085D01*
X133114027Y-75231085D02*
X133209265Y-75183466D01*
X133209265Y-75183466D02*
X133447360Y-75183466D01*
X133447360Y-75183466D02*
X133542598Y-75135847D01*
X134018789Y-75564419D02*
X134018789Y-74897752D01*
X134018789Y-74564419D02*
X133971170Y-74612038D01*
X133971170Y-74612038D02*
X134018789Y-74659657D01*
X134018789Y-74659657D02*
X134066408Y-74612038D01*
X134066408Y-74612038D02*
X134018789Y-74564419D01*
X134018789Y-74564419D02*
X134018789Y-74659657D01*
X134637836Y-75564419D02*
X134542598Y-75516800D01*
X134542598Y-75516800D02*
X134494979Y-75421561D01*
X134494979Y-75421561D02*
X134494979Y-74564419D01*
D11*
X173438457Y-89918491D02*
X173581315Y-89918491D01*
X173409886Y-90004205D02*
X173509886Y-89704205D01*
X173509886Y-89704205D02*
X173609886Y-90004205D01*
X173707029Y-90037348D02*
X173752743Y-90037348D01*
X173752743Y-90037348D02*
X173775600Y-90025920D01*
X173775600Y-90025920D02*
X173787029Y-90014491D01*
X173787029Y-90014491D02*
X173809886Y-89980205D01*
X173809886Y-89980205D02*
X173821315Y-89934491D01*
X173821315Y-89934491D02*
X173821315Y-89843062D01*
X173821315Y-89843062D02*
X173809886Y-89820205D01*
X173809886Y-89820205D02*
X173798458Y-89808777D01*
X173798458Y-89808777D02*
X173775600Y-89797348D01*
X173775600Y-89797348D02*
X173729886Y-89797348D01*
X173729886Y-89797348D02*
X173707029Y-89808777D01*
X173707029Y-89808777D02*
X173695600Y-89820205D01*
X173695600Y-89820205D02*
X173684172Y-89843062D01*
X173684172Y-89843062D02*
X173684172Y-89900205D01*
X173684172Y-89900205D02*
X173695600Y-89923062D01*
X173695600Y-89923062D02*
X173707029Y-89934491D01*
X173707029Y-89934491D02*
X173729886Y-89945920D01*
X173729886Y-89945920D02*
X173775600Y-89945920D01*
X173775600Y-89945920D02*
X173798458Y-89934491D01*
X173798458Y-89934491D02*
X173809886Y-89923062D01*
X173809886Y-89923062D02*
X173821315Y-89900205D01*
D13*
X126508095Y-116110819D02*
X126508095Y-116920342D01*
X126508095Y-116920342D02*
X126555714Y-117015580D01*
X126555714Y-117015580D02*
X126603333Y-117063200D01*
X126603333Y-117063200D02*
X126698571Y-117110819D01*
X126698571Y-117110819D02*
X126889047Y-117110819D01*
X126889047Y-117110819D02*
X126984285Y-117063200D01*
X126984285Y-117063200D02*
X127031904Y-117015580D01*
X127031904Y-117015580D02*
X127079523Y-116920342D01*
X127079523Y-116920342D02*
X127079523Y-116110819D01*
X127508095Y-117063200D02*
X127650952Y-117110819D01*
X127650952Y-117110819D02*
X127889047Y-117110819D01*
X127889047Y-117110819D02*
X127984285Y-117063200D01*
X127984285Y-117063200D02*
X128031904Y-117015580D01*
X128031904Y-117015580D02*
X128079523Y-116920342D01*
X128079523Y-116920342D02*
X128079523Y-116825104D01*
X128079523Y-116825104D02*
X128031904Y-116729866D01*
X128031904Y-116729866D02*
X127984285Y-116682247D01*
X127984285Y-116682247D02*
X127889047Y-116634628D01*
X127889047Y-116634628D02*
X127698571Y-116587009D01*
X127698571Y-116587009D02*
X127603333Y-116539390D01*
X127603333Y-116539390D02*
X127555714Y-116491771D01*
X127555714Y-116491771D02*
X127508095Y-116396533D01*
X127508095Y-116396533D02*
X127508095Y-116301295D01*
X127508095Y-116301295D02*
X127555714Y-116206057D01*
X127555714Y-116206057D02*
X127603333Y-116158438D01*
X127603333Y-116158438D02*
X127698571Y-116110819D01*
X127698571Y-116110819D02*
X127936666Y-116110819D01*
X127936666Y-116110819D02*
X128079523Y-116158438D01*
X128841428Y-116587009D02*
X128984285Y-116634628D01*
X128984285Y-116634628D02*
X129031904Y-116682247D01*
X129031904Y-116682247D02*
X129079523Y-116777485D01*
X129079523Y-116777485D02*
X129079523Y-116920342D01*
X129079523Y-116920342D02*
X129031904Y-117015580D01*
X129031904Y-117015580D02*
X128984285Y-117063200D01*
X128984285Y-117063200D02*
X128889047Y-117110819D01*
X128889047Y-117110819D02*
X128508095Y-117110819D01*
X128508095Y-117110819D02*
X128508095Y-116110819D01*
X128508095Y-116110819D02*
X128841428Y-116110819D01*
X128841428Y-116110819D02*
X128936666Y-116158438D01*
X128936666Y-116158438D02*
X128984285Y-116206057D01*
X128984285Y-116206057D02*
X129031904Y-116301295D01*
X129031904Y-116301295D02*
X129031904Y-116396533D01*
X129031904Y-116396533D02*
X128984285Y-116491771D01*
X128984285Y-116491771D02*
X128936666Y-116539390D01*
X128936666Y-116539390D02*
X128841428Y-116587009D01*
X128841428Y-116587009D02*
X128508095Y-116587009D01*
X143964819Y-82415047D02*
X143964819Y-82986475D01*
X143964819Y-82700761D02*
X142964819Y-82700761D01*
X142964819Y-82700761D02*
X143107676Y-82795999D01*
X143107676Y-82795999D02*
X143202914Y-82891237D01*
X143202914Y-82891237D02*
X143250533Y-82986475D01*
X143964819Y-81986475D02*
X142964819Y-81986475D01*
X143583866Y-81891237D02*
X143964819Y-81605523D01*
X143298152Y-81605523D02*
X143679104Y-81986475D01*
X141424819Y-82415047D02*
X141424819Y-82986475D01*
X141424819Y-82700761D02*
X140424819Y-82700761D01*
X140424819Y-82700761D02*
X140567676Y-82795999D01*
X140567676Y-82795999D02*
X140662914Y-82891237D01*
X140662914Y-82891237D02*
X140710533Y-82986475D01*
X141424819Y-81986475D02*
X140424819Y-81986475D01*
X141043866Y-81891237D02*
X141424819Y-81605523D01*
X140758152Y-81605523D02*
X141139104Y-81986475D01*
D14*
X148720000Y-88646000D02*
X148720000Y-86106000D01*
X149780000Y-76716000D02*
X149780000Y-78576000D01*
X149780000Y-83476000D02*
X149780000Y-112216000D01*
X149780000Y-112216000D02*
X165180000Y-112216000D01*
X152020000Y-76716000D02*
X152020000Y-78976000D01*
X165180000Y-76716000D02*
X149780000Y-76716000D01*
X165180000Y-112216000D02*
X165180000Y-76716000D01*
X151370000Y-81026000D02*
G75*
G02*
X149570000Y-81026000I-900000J0D01*
G01*
X149570000Y-81026000D02*
G75*
G02*
X151370000Y-81026000I900000J0D01*
G01*
X153020000Y-81026000D02*
G75*
G02*
X147920000Y-81026000I-2550000J0D01*
G01*
X147920000Y-81026000D02*
G75*
G02*
X153020000Y-81026000I2550000J0D01*
G01*
X122900000Y-70900000D02*
X122900000Y-71056000D01*
X122900000Y-73216000D02*
X122900000Y-73372000D01*
X122900000Y-70900484D02*
G75*
G02*
X126132335Y-71057392I1560000J-1235516D01*
G01*
X123419039Y-71056000D02*
G75*
G02*
X125501130Y-71056163I1040961J-1080000D01*
G01*
X125501130Y-73215837D02*
G75*
G02*
X123419039Y-73216000I-1041130J1079837D01*
G01*
X126132335Y-73214608D02*
G75*
G02*
X122900000Y-73371516I-1672335J1078608D01*
G01*
X131790000Y-70900000D02*
X131790000Y-71056000D01*
X131790000Y-73216000D02*
X131790000Y-73372000D01*
X131790000Y-70900484D02*
G75*
G02*
X135022335Y-71057392I1560000J-1235516D01*
G01*
X132309039Y-71056000D02*
G75*
G02*
X134391130Y-71056163I1040961J-1080000D01*
G01*
X134391130Y-73215837D02*
G75*
G02*
X132309039Y-73216000I-1041130J1079837D01*
G01*
X135022335Y-73214608D02*
G75*
G02*
X131790000Y-73371516I-1672335J1078608D01*
G01*
X118750000Y-77156000D02*
X118750000Y-79826000D01*
X118750000Y-82366000D02*
X118750000Y-120596000D01*
X118750000Y-120596000D02*
X123830000Y-120596000D01*
X121420000Y-79826000D02*
X118750000Y-79826000D01*
X121420000Y-82366000D02*
X118750000Y-82366000D01*
X121420000Y-82366000D02*
X121420000Y-79826000D01*
X121420000Y-82366000D02*
X121420000Y-117926000D01*
X121420000Y-117926000D02*
X118750000Y-117926000D01*
X123830000Y-112716000D02*
X131710000Y-112716000D01*
X123830000Y-123136000D02*
X123830000Y-112716000D01*
X131710000Y-112716000D02*
X131710000Y-123136000D01*
X131710000Y-123136000D02*
X123830000Y-123136000D01*
X134120000Y-79826000D02*
X134120000Y-117926000D01*
X134120000Y-79826000D02*
X136790000Y-79826000D01*
X134120000Y-117926000D02*
X136790000Y-117926000D01*
X136790000Y-77156000D02*
X118750000Y-77156000D01*
X136790000Y-120596000D02*
X131710000Y-120596000D01*
X136790000Y-120596000D02*
X136790000Y-77156000D01*
X142590000Y-80376000D02*
X142590000Y-84216000D01*
X142590000Y-84216000D02*
X144430000Y-84216000D01*
X143510000Y-79426000D02*
X143510000Y-80376000D01*
X143510000Y-85166000D02*
X143510000Y-84216000D01*
X144430000Y-80376000D02*
X142590000Y-80376000D01*
X144430000Y-84216000D02*
X144430000Y-80376000D01*
X140050000Y-80376000D02*
X140050000Y-84216000D01*
X140050000Y-84216000D02*
X141890000Y-84216000D01*
X140970000Y-79426000D02*
X140970000Y-80376000D01*
X140970000Y-85166000D02*
X140970000Y-84216000D01*
X141890000Y-80376000D02*
X140050000Y-80376000D01*
X141890000Y-84216000D02*
X141890000Y-80376000D01*
X155250000Y-117756000D02*
X155250000Y-119256000D01*
X156500000Y-121756000D02*
X161000000Y-121756000D01*
X161000000Y-115256000D02*
X156500000Y-115256000D01*
X162250000Y-119256000D02*
X162250000Y-117756000D01*
%LPC*%
D15*
X153670000Y-87376000D03*
D16*
X153670000Y-89916000D03*
X153670000Y-92456000D03*
X153670000Y-94996000D03*
X153670000Y-97536000D03*
X153670000Y-100076000D03*
X153670000Y-102616000D03*
X153670000Y-105156000D03*
X161290000Y-105156000D03*
X161290000Y-102616000D03*
X161290000Y-100076000D03*
X161290000Y-97536000D03*
X161290000Y-94996000D03*
X161290000Y-92456000D03*
X161290000Y-89916000D03*
X161290000Y-87376000D03*
D17*
X123190000Y-72136000D03*
D18*
X125730000Y-72136000D03*
D19*
X115570000Y-72136000D03*
D17*
X132080000Y-72136000D03*
D18*
X134620000Y-72136000D03*
D20*
X120150000Y-81096000D03*
D21*
X120150000Y-83636000D03*
X120150000Y-86176000D03*
X120150000Y-88716000D03*
X120150000Y-91256000D03*
X120150000Y-93796000D03*
X120150000Y-96336000D03*
X120150000Y-98876000D03*
X120150000Y-101416000D03*
X120150000Y-103956000D03*
X120150000Y-106496000D03*
X120150000Y-109036000D03*
X120150000Y-111576000D03*
X120150000Y-114116000D03*
X120150000Y-116656000D03*
X135390000Y-116656000D03*
X135390000Y-114116000D03*
X135390000Y-111576000D03*
X135390000Y-109036000D03*
X135390000Y-106496000D03*
X135390000Y-103956000D03*
X135390000Y-101416000D03*
X135390000Y-98876000D03*
X135390000Y-96336000D03*
X135390000Y-93796000D03*
X135390000Y-91256000D03*
X135390000Y-88716000D03*
X135390000Y-86176000D03*
X135390000Y-83636000D03*
X135390000Y-81096000D03*
D22*
X143510000Y-86106000D03*
D23*
X143510000Y-78486000D03*
D19*
X171450000Y-72136000D03*
X171450000Y-125476000D03*
D22*
X140970000Y-78486000D03*
D23*
X140970000Y-86106000D03*
D19*
X115570000Y-125476000D03*
D24*
X155500000Y-116256000D03*
X162000000Y-116256000D03*
X155500000Y-120756000D03*
X162000000Y-120756000D03*
%LPD*%
M02*
