%TF.GenerationSoftware,KiCad,Pcbnew,8.0.3*%
%TF.CreationDate,2025-02-02T14:21:54+13:00*%
%TF.ProjectId,2102_sram_tester,32313032-5f73-4726-916d-5f7465737465,rev?*%
%TF.SameCoordinates,Original*%
%TF.FileFunction,Drillmap*%
%TF.FilePolarity,Positive*%
%FSLAX45Y45*%
G04 Gerber Fmt 4.5, Leading zero omitted, Abs format (unit mm)*
G04 Created by KiCad (PCBNEW 8.0.3) date 2025-02-02 14:21:54*
%MOMM*%
%LPD*%
G01*
G04 APERTURE LIST*
%ADD10C,0.050000*%
%ADD11C,0.200000*%
%ADD12C,0.100000*%
%ADD13C,0.110000*%
G04 APERTURE END LIST*
D10*
X17272000Y-6832600D02*
X11430000Y-6832600D01*
X17526000Y-12674600D02*
X17526000Y-7086600D01*
X11176000Y-7086600D02*
G75*
G02*
X11430000Y-6832600I254000J0D01*
G01*
X11430000Y-12928600D02*
X17272000Y-12928600D01*
X17272000Y-6832600D02*
G75*
G02*
X17526000Y-7086600I0J-254000D01*
G01*
X11430000Y-12928600D02*
G75*
G02*
X11176000Y-12674600I0J254000D01*
G01*
X17526000Y-12674600D02*
G75*
G02*
X17272000Y-12928600I-254000J0D01*
G01*
X11176000Y-7086600D02*
X11176000Y-12674600D01*
D11*
D12*
X14062000Y-7813600D02*
X14132000Y-7883600D01*
X14132000Y-7813600D02*
X14062000Y-7883600D01*
X14062000Y-8575600D02*
X14132000Y-8645600D01*
X14132000Y-8575600D02*
X14062000Y-8645600D01*
X14316000Y-7813600D02*
X14386000Y-7883600D01*
X14386000Y-7813600D02*
X14316000Y-7883600D01*
X14316000Y-8575600D02*
X14386000Y-8645600D01*
X14386000Y-8575600D02*
X14316000Y-8645600D01*
X12364000Y-7213600D02*
G75*
G02*
X12274000Y-7213600I-45000J0D01*
G01*
X12274000Y-7213600D02*
G75*
G02*
X12364000Y-7213600I45000J0D01*
G01*
X12618000Y-7213600D02*
G75*
G02*
X12528000Y-7213600I-45000J0D01*
G01*
X12528000Y-7213600D02*
G75*
G02*
X12618000Y-7213600I45000J0D01*
G01*
X13253000Y-7213600D02*
G75*
G02*
X13163000Y-7213600I-45000J0D01*
G01*
X13163000Y-7213600D02*
G75*
G02*
X13253000Y-7213600I45000J0D01*
G01*
X13507000Y-7213600D02*
G75*
G02*
X13417000Y-7213600I-45000J0D01*
G01*
X13417000Y-7213600D02*
G75*
G02*
X13507000Y-7213600I45000J0D01*
G01*
X12015000Y-8059600D02*
X12015000Y-8159600D01*
X11965000Y-8109600D02*
X12065000Y-8109600D01*
X12015000Y-8313600D02*
X12015000Y-8413600D01*
X11965000Y-8363600D02*
X12065000Y-8363600D01*
X12015000Y-8567600D02*
X12015000Y-8667600D01*
X11965000Y-8617600D02*
X12065000Y-8617600D01*
X12015000Y-8821600D02*
X12015000Y-8921600D01*
X11965000Y-8871600D02*
X12065000Y-8871600D01*
X12015000Y-9075600D02*
X12015000Y-9175600D01*
X11965000Y-9125600D02*
X12065000Y-9125600D01*
X12015000Y-9329600D02*
X12015000Y-9429600D01*
X11965000Y-9379600D02*
X12065000Y-9379600D01*
X12015000Y-9583600D02*
X12015000Y-9683600D01*
X11965000Y-9633600D02*
X12065000Y-9633600D01*
X12015000Y-9837600D02*
X12015000Y-9937600D01*
X11965000Y-9887600D02*
X12065000Y-9887600D01*
X12015000Y-10091600D02*
X12015000Y-10191600D01*
X11965000Y-10141600D02*
X12065000Y-10141600D01*
X12015000Y-10345600D02*
X12015000Y-10445600D01*
X11965000Y-10395600D02*
X12065000Y-10395600D01*
X12015000Y-10599600D02*
X12015000Y-10699600D01*
X11965000Y-10649600D02*
X12065000Y-10649600D01*
X12015000Y-10853600D02*
X12015000Y-10953600D01*
X11965000Y-10903600D02*
X12065000Y-10903600D01*
X12015000Y-11107600D02*
X12015000Y-11207600D01*
X11965000Y-11157600D02*
X12065000Y-11157600D01*
X12015000Y-11361600D02*
X12015000Y-11461600D01*
X11965000Y-11411600D02*
X12065000Y-11411600D01*
X12015000Y-11615600D02*
X12015000Y-11715600D01*
X11965000Y-11665600D02*
X12065000Y-11665600D01*
X13539000Y-8059600D02*
X13539000Y-8159600D01*
X13489000Y-8109600D02*
X13589000Y-8109600D01*
X13539000Y-8313600D02*
X13539000Y-8413600D01*
X13489000Y-8363600D02*
X13589000Y-8363600D01*
X13539000Y-8567600D02*
X13539000Y-8667600D01*
X13489000Y-8617600D02*
X13589000Y-8617600D01*
X13539000Y-8821600D02*
X13539000Y-8921600D01*
X13489000Y-8871600D02*
X13589000Y-8871600D01*
X13539000Y-9075600D02*
X13539000Y-9175600D01*
X13489000Y-9125600D02*
X13589000Y-9125600D01*
X13539000Y-9329600D02*
X13539000Y-9429600D01*
X13489000Y-9379600D02*
X13589000Y-9379600D01*
X13539000Y-9583600D02*
X13539000Y-9683600D01*
X13489000Y-9633600D02*
X13589000Y-9633600D01*
X13539000Y-9837600D02*
X13539000Y-9937600D01*
X13489000Y-9887600D02*
X13589000Y-9887600D01*
X13539000Y-10091600D02*
X13539000Y-10191600D01*
X13489000Y-10141600D02*
X13589000Y-10141600D01*
X13539000Y-10345600D02*
X13539000Y-10445600D01*
X13489000Y-10395600D02*
X13589000Y-10395600D01*
X13539000Y-10599600D02*
X13539000Y-10699600D01*
X13489000Y-10649600D02*
X13589000Y-10649600D01*
X13539000Y-10853600D02*
X13539000Y-10953600D01*
X13489000Y-10903600D02*
X13589000Y-10903600D01*
X13539000Y-11107600D02*
X13539000Y-11207600D01*
X13489000Y-11157600D02*
X13589000Y-11157600D01*
X13539000Y-11361600D02*
X13539000Y-11461600D01*
X13489000Y-11411600D02*
X13589000Y-11411600D01*
X13539000Y-11615600D02*
X13539000Y-11715600D01*
X13489000Y-11665600D02*
X13589000Y-11665600D01*
X15367000Y-8687600D02*
X15367000Y-8787600D01*
X15317000Y-8737600D02*
X15417000Y-8737600D01*
X15367000Y-8941600D02*
X15367000Y-9041600D01*
X15317000Y-8991600D02*
X15417000Y-8991600D01*
X15367000Y-9195600D02*
X15367000Y-9295600D01*
X15317000Y-9245600D02*
X15417000Y-9245600D01*
X15367000Y-9449600D02*
X15367000Y-9549600D01*
X15317000Y-9499600D02*
X15417000Y-9499600D01*
X15367000Y-9703600D02*
X15367000Y-9803600D01*
X15317000Y-9753600D02*
X15417000Y-9753600D01*
X15367000Y-9957600D02*
X15367000Y-10057600D01*
X15317000Y-10007600D02*
X15417000Y-10007600D01*
X15367000Y-10211600D02*
X15367000Y-10311600D01*
X15317000Y-10261600D02*
X15417000Y-10261600D01*
X15367000Y-10465600D02*
X15367000Y-10565600D01*
X15317000Y-10515600D02*
X15417000Y-10515600D01*
X16129000Y-8687600D02*
X16129000Y-8787600D01*
X16079000Y-8737600D02*
X16179000Y-8737600D01*
X16129000Y-8941600D02*
X16129000Y-9041600D01*
X16079000Y-8991600D02*
X16179000Y-8991600D01*
X16129000Y-9195600D02*
X16129000Y-9295600D01*
X16079000Y-9245600D02*
X16179000Y-9245600D01*
X16129000Y-9449600D02*
X16129000Y-9549600D01*
X16079000Y-9499600D02*
X16179000Y-9499600D01*
X16129000Y-9703600D02*
X16129000Y-9803600D01*
X16079000Y-9753600D02*
X16179000Y-9753600D01*
X16129000Y-9957600D02*
X16129000Y-10057600D01*
X16079000Y-10007600D02*
X16179000Y-10007600D01*
X16129000Y-10211600D02*
X16129000Y-10311600D01*
X16079000Y-10261600D02*
X16179000Y-10261600D01*
X16129000Y-10465600D02*
X16129000Y-10565600D01*
X16079000Y-10515600D02*
X16179000Y-10515600D01*
D13*
X15588891Y-11664491D02*
X15588891Y-11586709D01*
X15511109Y-11586709D01*
X15511109Y-11664491D01*
X15588891Y-11664491D01*
X15588891Y-12114491D02*
X15588891Y-12036709D01*
X15511109Y-12036709D01*
X15511109Y-12114491D01*
X15588891Y-12114491D01*
X16238891Y-11664491D02*
X16238891Y-11586709D01*
X16161109Y-11586709D01*
X16161109Y-11664491D01*
X16238891Y-11664491D01*
X16238891Y-12114491D02*
X16238891Y-12036709D01*
X16161109Y-12036709D01*
X16161109Y-12114491D01*
X16238891Y-12114491D01*
D11*
X11434277Y-13242584D02*
X11434277Y-13042584D01*
X11434277Y-13042584D02*
X11481896Y-13042584D01*
X11481896Y-13042584D02*
X11510467Y-13052108D01*
X11510467Y-13052108D02*
X11529515Y-13071155D01*
X11529515Y-13071155D02*
X11539039Y-13090203D01*
X11539039Y-13090203D02*
X11548562Y-13128298D01*
X11548562Y-13128298D02*
X11548562Y-13156869D01*
X11548562Y-13156869D02*
X11539039Y-13194965D01*
X11539039Y-13194965D02*
X11529515Y-13214012D01*
X11529515Y-13214012D02*
X11510467Y-13233060D01*
X11510467Y-13233060D02*
X11481896Y-13242584D01*
X11481896Y-13242584D02*
X11434277Y-13242584D01*
X11634277Y-13242584D02*
X11634277Y-13109250D01*
X11634277Y-13147346D02*
X11643801Y-13128298D01*
X11643801Y-13128298D02*
X11653324Y-13118774D01*
X11653324Y-13118774D02*
X11672372Y-13109250D01*
X11672372Y-13109250D02*
X11691420Y-13109250D01*
X11758086Y-13242584D02*
X11758086Y-13109250D01*
X11758086Y-13042584D02*
X11748562Y-13052108D01*
X11748562Y-13052108D02*
X11758086Y-13061631D01*
X11758086Y-13061631D02*
X11767610Y-13052108D01*
X11767610Y-13052108D02*
X11758086Y-13042584D01*
X11758086Y-13042584D02*
X11758086Y-13061631D01*
X11881896Y-13242584D02*
X11862848Y-13233060D01*
X11862848Y-13233060D02*
X11853324Y-13214012D01*
X11853324Y-13214012D02*
X11853324Y-13042584D01*
X11986658Y-13242584D02*
X11967610Y-13233060D01*
X11967610Y-13233060D02*
X11958086Y-13214012D01*
X11958086Y-13214012D02*
X11958086Y-13042584D01*
X12215229Y-13242584D02*
X12215229Y-13042584D01*
X12215229Y-13042584D02*
X12281896Y-13185441D01*
X12281896Y-13185441D02*
X12348562Y-13042584D01*
X12348562Y-13042584D02*
X12348562Y-13242584D01*
X12529515Y-13242584D02*
X12529515Y-13137822D01*
X12529515Y-13137822D02*
X12519991Y-13118774D01*
X12519991Y-13118774D02*
X12500943Y-13109250D01*
X12500943Y-13109250D02*
X12462848Y-13109250D01*
X12462848Y-13109250D02*
X12443801Y-13118774D01*
X12529515Y-13233060D02*
X12510467Y-13242584D01*
X12510467Y-13242584D02*
X12462848Y-13242584D01*
X12462848Y-13242584D02*
X12443801Y-13233060D01*
X12443801Y-13233060D02*
X12434277Y-13214012D01*
X12434277Y-13214012D02*
X12434277Y-13194965D01*
X12434277Y-13194965D02*
X12443801Y-13175917D01*
X12443801Y-13175917D02*
X12462848Y-13166393D01*
X12462848Y-13166393D02*
X12510467Y-13166393D01*
X12510467Y-13166393D02*
X12529515Y-13156869D01*
X12624753Y-13109250D02*
X12624753Y-13309250D01*
X12624753Y-13118774D02*
X12643801Y-13109250D01*
X12643801Y-13109250D02*
X12681896Y-13109250D01*
X12681896Y-13109250D02*
X12700943Y-13118774D01*
X12700943Y-13118774D02*
X12710467Y-13128298D01*
X12710467Y-13128298D02*
X12719991Y-13147346D01*
X12719991Y-13147346D02*
X12719991Y-13204488D01*
X12719991Y-13204488D02*
X12710467Y-13223536D01*
X12710467Y-13223536D02*
X12700943Y-13233060D01*
X12700943Y-13233060D02*
X12681896Y-13242584D01*
X12681896Y-13242584D02*
X12643801Y-13242584D01*
X12643801Y-13242584D02*
X12624753Y-13233060D01*
X12805705Y-13223536D02*
X12815229Y-13233060D01*
X12815229Y-13233060D02*
X12805705Y-13242584D01*
X12805705Y-13242584D02*
X12796182Y-13233060D01*
X12796182Y-13233060D02*
X12805705Y-13223536D01*
X12805705Y-13223536D02*
X12805705Y-13242584D01*
X12805705Y-13118774D02*
X12815229Y-13128298D01*
X12815229Y-13128298D02*
X12805705Y-13137822D01*
X12805705Y-13137822D02*
X12796182Y-13128298D01*
X12796182Y-13128298D02*
X12805705Y-13118774D01*
X12805705Y-13118774D02*
X12805705Y-13137822D01*
D12*
X11103500Y-13536100D02*
X11173500Y-13606100D01*
X11173500Y-13536100D02*
X11103500Y-13606100D01*
D11*
X11472372Y-13462584D02*
X11491420Y-13462584D01*
X11491420Y-13462584D02*
X11510467Y-13472108D01*
X11510467Y-13472108D02*
X11519991Y-13481631D01*
X11519991Y-13481631D02*
X11529515Y-13500679D01*
X11529515Y-13500679D02*
X11539039Y-13538774D01*
X11539039Y-13538774D02*
X11539039Y-13586393D01*
X11539039Y-13586393D02*
X11529515Y-13624488D01*
X11529515Y-13624488D02*
X11519991Y-13643536D01*
X11519991Y-13643536D02*
X11510467Y-13653060D01*
X11510467Y-13653060D02*
X11491420Y-13662584D01*
X11491420Y-13662584D02*
X11472372Y-13662584D01*
X11472372Y-13662584D02*
X11453324Y-13653060D01*
X11453324Y-13653060D02*
X11443801Y-13643536D01*
X11443801Y-13643536D02*
X11434277Y-13624488D01*
X11434277Y-13624488D02*
X11424753Y-13586393D01*
X11424753Y-13586393D02*
X11424753Y-13538774D01*
X11424753Y-13538774D02*
X11434277Y-13500679D01*
X11434277Y-13500679D02*
X11443801Y-13481631D01*
X11443801Y-13481631D02*
X11453324Y-13472108D01*
X11453324Y-13472108D02*
X11472372Y-13462584D01*
X11624753Y-13643536D02*
X11634277Y-13653060D01*
X11634277Y-13653060D02*
X11624753Y-13662584D01*
X11624753Y-13662584D02*
X11615229Y-13653060D01*
X11615229Y-13653060D02*
X11624753Y-13643536D01*
X11624753Y-13643536D02*
X11624753Y-13662584D01*
X11700943Y-13462584D02*
X11834277Y-13462584D01*
X11834277Y-13462584D02*
X11748562Y-13662584D01*
X11948562Y-13462584D02*
X11967610Y-13462584D01*
X11967610Y-13462584D02*
X11986658Y-13472108D01*
X11986658Y-13472108D02*
X11996182Y-13481631D01*
X11996182Y-13481631D02*
X12005705Y-13500679D01*
X12005705Y-13500679D02*
X12015229Y-13538774D01*
X12015229Y-13538774D02*
X12015229Y-13586393D01*
X12015229Y-13586393D02*
X12005705Y-13624488D01*
X12005705Y-13624488D02*
X11996182Y-13643536D01*
X11996182Y-13643536D02*
X11986658Y-13653060D01*
X11986658Y-13653060D02*
X11967610Y-13662584D01*
X11967610Y-13662584D02*
X11948562Y-13662584D01*
X11948562Y-13662584D02*
X11929515Y-13653060D01*
X11929515Y-13653060D02*
X11919991Y-13643536D01*
X11919991Y-13643536D02*
X11910467Y-13624488D01*
X11910467Y-13624488D02*
X11900943Y-13586393D01*
X11900943Y-13586393D02*
X11900943Y-13538774D01*
X11900943Y-13538774D02*
X11910467Y-13500679D01*
X11910467Y-13500679D02*
X11919991Y-13481631D01*
X11919991Y-13481631D02*
X11929515Y-13472108D01*
X11929515Y-13472108D02*
X11948562Y-13462584D01*
X12139039Y-13462584D02*
X12158086Y-13462584D01*
X12158086Y-13462584D02*
X12177134Y-13472108D01*
X12177134Y-13472108D02*
X12186658Y-13481631D01*
X12186658Y-13481631D02*
X12196182Y-13500679D01*
X12196182Y-13500679D02*
X12205705Y-13538774D01*
X12205705Y-13538774D02*
X12205705Y-13586393D01*
X12205705Y-13586393D02*
X12196182Y-13624488D01*
X12196182Y-13624488D02*
X12186658Y-13643536D01*
X12186658Y-13643536D02*
X12177134Y-13653060D01*
X12177134Y-13653060D02*
X12158086Y-13662584D01*
X12158086Y-13662584D02*
X12139039Y-13662584D01*
X12139039Y-13662584D02*
X12119991Y-13653060D01*
X12119991Y-13653060D02*
X12110467Y-13643536D01*
X12110467Y-13643536D02*
X12100943Y-13624488D01*
X12100943Y-13624488D02*
X12091420Y-13586393D01*
X12091420Y-13586393D02*
X12091420Y-13538774D01*
X12091420Y-13538774D02*
X12100943Y-13500679D01*
X12100943Y-13500679D02*
X12110467Y-13481631D01*
X12110467Y-13481631D02*
X12119991Y-13472108D01*
X12119991Y-13472108D02*
X12139039Y-13462584D01*
X12291420Y-13662584D02*
X12291420Y-13529250D01*
X12291420Y-13548298D02*
X12300943Y-13538774D01*
X12300943Y-13538774D02*
X12319991Y-13529250D01*
X12319991Y-13529250D02*
X12348563Y-13529250D01*
X12348563Y-13529250D02*
X12367610Y-13538774D01*
X12367610Y-13538774D02*
X12377134Y-13557822D01*
X12377134Y-13557822D02*
X12377134Y-13662584D01*
X12377134Y-13557822D02*
X12386658Y-13538774D01*
X12386658Y-13538774D02*
X12405705Y-13529250D01*
X12405705Y-13529250D02*
X12434277Y-13529250D01*
X12434277Y-13529250D02*
X12453324Y-13538774D01*
X12453324Y-13538774D02*
X12462848Y-13557822D01*
X12462848Y-13557822D02*
X12462848Y-13662584D01*
X12558086Y-13662584D02*
X12558086Y-13529250D01*
X12558086Y-13548298D02*
X12567610Y-13538774D01*
X12567610Y-13538774D02*
X12586658Y-13529250D01*
X12586658Y-13529250D02*
X12615229Y-13529250D01*
X12615229Y-13529250D02*
X12634277Y-13538774D01*
X12634277Y-13538774D02*
X12643801Y-13557822D01*
X12643801Y-13557822D02*
X12643801Y-13662584D01*
X12643801Y-13557822D02*
X12653324Y-13538774D01*
X12653324Y-13538774D02*
X12672372Y-13529250D01*
X12672372Y-13529250D02*
X12700943Y-13529250D01*
X12700943Y-13529250D02*
X12719991Y-13538774D01*
X12719991Y-13538774D02*
X12729515Y-13557822D01*
X12729515Y-13557822D02*
X12729515Y-13662584D01*
X13119991Y-13453060D02*
X12948563Y-13710203D01*
X13377134Y-13462584D02*
X13396182Y-13462584D01*
X13396182Y-13462584D02*
X13415229Y-13472108D01*
X13415229Y-13472108D02*
X13424753Y-13481631D01*
X13424753Y-13481631D02*
X13434277Y-13500679D01*
X13434277Y-13500679D02*
X13443801Y-13538774D01*
X13443801Y-13538774D02*
X13443801Y-13586393D01*
X13443801Y-13586393D02*
X13434277Y-13624488D01*
X13434277Y-13624488D02*
X13424753Y-13643536D01*
X13424753Y-13643536D02*
X13415229Y-13653060D01*
X13415229Y-13653060D02*
X13396182Y-13662584D01*
X13396182Y-13662584D02*
X13377134Y-13662584D01*
X13377134Y-13662584D02*
X13358086Y-13653060D01*
X13358086Y-13653060D02*
X13348563Y-13643536D01*
X13348563Y-13643536D02*
X13339039Y-13624488D01*
X13339039Y-13624488D02*
X13329515Y-13586393D01*
X13329515Y-13586393D02*
X13329515Y-13538774D01*
X13329515Y-13538774D02*
X13339039Y-13500679D01*
X13339039Y-13500679D02*
X13348563Y-13481631D01*
X13348563Y-13481631D02*
X13358086Y-13472108D01*
X13358086Y-13472108D02*
X13377134Y-13462584D01*
X13529515Y-13643536D02*
X13539039Y-13653060D01*
X13539039Y-13653060D02*
X13529515Y-13662584D01*
X13529515Y-13662584D02*
X13519991Y-13653060D01*
X13519991Y-13653060D02*
X13529515Y-13643536D01*
X13529515Y-13643536D02*
X13529515Y-13662584D01*
X13662848Y-13462584D02*
X13681896Y-13462584D01*
X13681896Y-13462584D02*
X13700944Y-13472108D01*
X13700944Y-13472108D02*
X13710467Y-13481631D01*
X13710467Y-13481631D02*
X13719991Y-13500679D01*
X13719991Y-13500679D02*
X13729515Y-13538774D01*
X13729515Y-13538774D02*
X13729515Y-13586393D01*
X13729515Y-13586393D02*
X13719991Y-13624488D01*
X13719991Y-13624488D02*
X13710467Y-13643536D01*
X13710467Y-13643536D02*
X13700944Y-13653060D01*
X13700944Y-13653060D02*
X13681896Y-13662584D01*
X13681896Y-13662584D02*
X13662848Y-13662584D01*
X13662848Y-13662584D02*
X13643801Y-13653060D01*
X13643801Y-13653060D02*
X13634277Y-13643536D01*
X13634277Y-13643536D02*
X13624753Y-13624488D01*
X13624753Y-13624488D02*
X13615229Y-13586393D01*
X13615229Y-13586393D02*
X13615229Y-13538774D01*
X13615229Y-13538774D02*
X13624753Y-13500679D01*
X13624753Y-13500679D02*
X13634277Y-13481631D01*
X13634277Y-13481631D02*
X13643801Y-13472108D01*
X13643801Y-13472108D02*
X13662848Y-13462584D01*
X13805706Y-13481631D02*
X13815229Y-13472108D01*
X13815229Y-13472108D02*
X13834277Y-13462584D01*
X13834277Y-13462584D02*
X13881896Y-13462584D01*
X13881896Y-13462584D02*
X13900944Y-13472108D01*
X13900944Y-13472108D02*
X13910467Y-13481631D01*
X13910467Y-13481631D02*
X13919991Y-13500679D01*
X13919991Y-13500679D02*
X13919991Y-13519727D01*
X13919991Y-13519727D02*
X13910467Y-13548298D01*
X13910467Y-13548298D02*
X13796182Y-13662584D01*
X13796182Y-13662584D02*
X13919991Y-13662584D01*
X13986658Y-13462584D02*
X14119991Y-13462584D01*
X14119991Y-13462584D02*
X14034277Y-13662584D01*
X14281896Y-13462584D02*
X14243801Y-13462584D01*
X14243801Y-13462584D02*
X14224753Y-13472108D01*
X14224753Y-13472108D02*
X14215229Y-13481631D01*
X14215229Y-13481631D02*
X14196182Y-13510203D01*
X14196182Y-13510203D02*
X14186658Y-13548298D01*
X14186658Y-13548298D02*
X14186658Y-13624488D01*
X14186658Y-13624488D02*
X14196182Y-13643536D01*
X14196182Y-13643536D02*
X14205706Y-13653060D01*
X14205706Y-13653060D02*
X14224753Y-13662584D01*
X14224753Y-13662584D02*
X14262848Y-13662584D01*
X14262848Y-13662584D02*
X14281896Y-13653060D01*
X14281896Y-13653060D02*
X14291420Y-13643536D01*
X14291420Y-13643536D02*
X14300944Y-13624488D01*
X14300944Y-13624488D02*
X14300944Y-13576869D01*
X14300944Y-13576869D02*
X14291420Y-13557822D01*
X14291420Y-13557822D02*
X14281896Y-13548298D01*
X14281896Y-13548298D02*
X14262848Y-13538774D01*
X14262848Y-13538774D02*
X14224753Y-13538774D01*
X14224753Y-13538774D02*
X14205706Y-13548298D01*
X14205706Y-13548298D02*
X14196182Y-13557822D01*
X14196182Y-13557822D02*
X14186658Y-13576869D01*
X14377134Y-13462584D02*
X14377134Y-13500679D01*
X14453325Y-13462584D02*
X14453325Y-13500679D01*
X14748563Y-13738774D02*
X14739039Y-13729250D01*
X14739039Y-13729250D02*
X14719991Y-13700679D01*
X14719991Y-13700679D02*
X14710468Y-13681631D01*
X14710468Y-13681631D02*
X14700944Y-13653060D01*
X14700944Y-13653060D02*
X14691420Y-13605441D01*
X14691420Y-13605441D02*
X14691420Y-13567346D01*
X14691420Y-13567346D02*
X14700944Y-13519727D01*
X14700944Y-13519727D02*
X14710468Y-13491155D01*
X14710468Y-13491155D02*
X14719991Y-13472108D01*
X14719991Y-13472108D02*
X14739039Y-13443536D01*
X14739039Y-13443536D02*
X14748563Y-13434012D01*
X14910468Y-13529250D02*
X14910468Y-13662584D01*
X14862848Y-13453060D02*
X14815229Y-13595917D01*
X14815229Y-13595917D02*
X14939039Y-13595917D01*
X15167610Y-13662584D02*
X15167610Y-13462584D01*
X15253325Y-13662584D02*
X15253325Y-13557822D01*
X15253325Y-13557822D02*
X15243801Y-13538774D01*
X15243801Y-13538774D02*
X15224753Y-13529250D01*
X15224753Y-13529250D02*
X15196182Y-13529250D01*
X15196182Y-13529250D02*
X15177134Y-13538774D01*
X15177134Y-13538774D02*
X15167610Y-13548298D01*
X15377134Y-13662584D02*
X15358087Y-13653060D01*
X15358087Y-13653060D02*
X15348563Y-13643536D01*
X15348563Y-13643536D02*
X15339039Y-13624488D01*
X15339039Y-13624488D02*
X15339039Y-13567346D01*
X15339039Y-13567346D02*
X15348563Y-13548298D01*
X15348563Y-13548298D02*
X15358087Y-13538774D01*
X15358087Y-13538774D02*
X15377134Y-13529250D01*
X15377134Y-13529250D02*
X15405706Y-13529250D01*
X15405706Y-13529250D02*
X15424753Y-13538774D01*
X15424753Y-13538774D02*
X15434277Y-13548298D01*
X15434277Y-13548298D02*
X15443801Y-13567346D01*
X15443801Y-13567346D02*
X15443801Y-13624488D01*
X15443801Y-13624488D02*
X15434277Y-13643536D01*
X15434277Y-13643536D02*
X15424753Y-13653060D01*
X15424753Y-13653060D02*
X15405706Y-13662584D01*
X15405706Y-13662584D02*
X15377134Y-13662584D01*
X15558087Y-13662584D02*
X15539039Y-13653060D01*
X15539039Y-13653060D02*
X15529515Y-13634012D01*
X15529515Y-13634012D02*
X15529515Y-13462584D01*
X15710468Y-13653060D02*
X15691420Y-13662584D01*
X15691420Y-13662584D02*
X15653325Y-13662584D01*
X15653325Y-13662584D02*
X15634277Y-13653060D01*
X15634277Y-13653060D02*
X15624753Y-13634012D01*
X15624753Y-13634012D02*
X15624753Y-13557822D01*
X15624753Y-13557822D02*
X15634277Y-13538774D01*
X15634277Y-13538774D02*
X15653325Y-13529250D01*
X15653325Y-13529250D02*
X15691420Y-13529250D01*
X15691420Y-13529250D02*
X15710468Y-13538774D01*
X15710468Y-13538774D02*
X15719991Y-13557822D01*
X15719991Y-13557822D02*
X15719991Y-13576869D01*
X15719991Y-13576869D02*
X15624753Y-13595917D01*
X15796182Y-13653060D02*
X15815230Y-13662584D01*
X15815230Y-13662584D02*
X15853325Y-13662584D01*
X15853325Y-13662584D02*
X15872372Y-13653060D01*
X15872372Y-13653060D02*
X15881896Y-13634012D01*
X15881896Y-13634012D02*
X15881896Y-13624488D01*
X15881896Y-13624488D02*
X15872372Y-13605441D01*
X15872372Y-13605441D02*
X15853325Y-13595917D01*
X15853325Y-13595917D02*
X15824753Y-13595917D01*
X15824753Y-13595917D02*
X15805706Y-13586393D01*
X15805706Y-13586393D02*
X15796182Y-13567346D01*
X15796182Y-13567346D02*
X15796182Y-13557822D01*
X15796182Y-13557822D02*
X15805706Y-13538774D01*
X15805706Y-13538774D02*
X15824753Y-13529250D01*
X15824753Y-13529250D02*
X15853325Y-13529250D01*
X15853325Y-13529250D02*
X15872372Y-13538774D01*
X15948563Y-13738774D02*
X15958087Y-13729250D01*
X15958087Y-13729250D02*
X15977134Y-13700679D01*
X15977134Y-13700679D02*
X15986658Y-13681631D01*
X15986658Y-13681631D02*
X15996182Y-13653060D01*
X15996182Y-13653060D02*
X16005706Y-13605441D01*
X16005706Y-13605441D02*
X16005706Y-13567346D01*
X16005706Y-13567346D02*
X15996182Y-13519727D01*
X15996182Y-13519727D02*
X15986658Y-13491155D01*
X15986658Y-13491155D02*
X15977134Y-13472108D01*
X15977134Y-13472108D02*
X15958087Y-13443536D01*
X15958087Y-13443536D02*
X15948563Y-13434012D01*
D12*
X11173500Y-13835100D02*
G75*
G02*
X11083500Y-13835100I-45000J0D01*
G01*
X11083500Y-13835100D02*
G75*
G02*
X11173500Y-13835100I45000J0D01*
G01*
D11*
X11472372Y-13726584D02*
X11491420Y-13726584D01*
X11491420Y-13726584D02*
X11510467Y-13736108D01*
X11510467Y-13736108D02*
X11519991Y-13745631D01*
X11519991Y-13745631D02*
X11529515Y-13764679D01*
X11529515Y-13764679D02*
X11539039Y-13802774D01*
X11539039Y-13802774D02*
X11539039Y-13850393D01*
X11539039Y-13850393D02*
X11529515Y-13888488D01*
X11529515Y-13888488D02*
X11519991Y-13907536D01*
X11519991Y-13907536D02*
X11510467Y-13917060D01*
X11510467Y-13917060D02*
X11491420Y-13926584D01*
X11491420Y-13926584D02*
X11472372Y-13926584D01*
X11472372Y-13926584D02*
X11453324Y-13917060D01*
X11453324Y-13917060D02*
X11443801Y-13907536D01*
X11443801Y-13907536D02*
X11434277Y-13888488D01*
X11434277Y-13888488D02*
X11424753Y-13850393D01*
X11424753Y-13850393D02*
X11424753Y-13802774D01*
X11424753Y-13802774D02*
X11434277Y-13764679D01*
X11434277Y-13764679D02*
X11443801Y-13745631D01*
X11443801Y-13745631D02*
X11453324Y-13736108D01*
X11453324Y-13736108D02*
X11472372Y-13726584D01*
X11624753Y-13907536D02*
X11634277Y-13917060D01*
X11634277Y-13917060D02*
X11624753Y-13926584D01*
X11624753Y-13926584D02*
X11615229Y-13917060D01*
X11615229Y-13917060D02*
X11624753Y-13907536D01*
X11624753Y-13907536D02*
X11624753Y-13926584D01*
X11729515Y-13926584D02*
X11767610Y-13926584D01*
X11767610Y-13926584D02*
X11786658Y-13917060D01*
X11786658Y-13917060D02*
X11796182Y-13907536D01*
X11796182Y-13907536D02*
X11815229Y-13878965D01*
X11815229Y-13878965D02*
X11824753Y-13840869D01*
X11824753Y-13840869D02*
X11824753Y-13764679D01*
X11824753Y-13764679D02*
X11815229Y-13745631D01*
X11815229Y-13745631D02*
X11805705Y-13736108D01*
X11805705Y-13736108D02*
X11786658Y-13726584D01*
X11786658Y-13726584D02*
X11748562Y-13726584D01*
X11748562Y-13726584D02*
X11729515Y-13736108D01*
X11729515Y-13736108D02*
X11719991Y-13745631D01*
X11719991Y-13745631D02*
X11710467Y-13764679D01*
X11710467Y-13764679D02*
X11710467Y-13812298D01*
X11710467Y-13812298D02*
X11719991Y-13831346D01*
X11719991Y-13831346D02*
X11729515Y-13840869D01*
X11729515Y-13840869D02*
X11748562Y-13850393D01*
X11748562Y-13850393D02*
X11786658Y-13850393D01*
X11786658Y-13850393D02*
X11805705Y-13840869D01*
X11805705Y-13840869D02*
X11815229Y-13831346D01*
X11815229Y-13831346D02*
X11824753Y-13812298D01*
X11948562Y-13726584D02*
X11967610Y-13726584D01*
X11967610Y-13726584D02*
X11986658Y-13736108D01*
X11986658Y-13736108D02*
X11996182Y-13745631D01*
X11996182Y-13745631D02*
X12005705Y-13764679D01*
X12005705Y-13764679D02*
X12015229Y-13802774D01*
X12015229Y-13802774D02*
X12015229Y-13850393D01*
X12015229Y-13850393D02*
X12005705Y-13888488D01*
X12005705Y-13888488D02*
X11996182Y-13907536D01*
X11996182Y-13907536D02*
X11986658Y-13917060D01*
X11986658Y-13917060D02*
X11967610Y-13926584D01*
X11967610Y-13926584D02*
X11948562Y-13926584D01*
X11948562Y-13926584D02*
X11929515Y-13917060D01*
X11929515Y-13917060D02*
X11919991Y-13907536D01*
X11919991Y-13907536D02*
X11910467Y-13888488D01*
X11910467Y-13888488D02*
X11900943Y-13850393D01*
X11900943Y-13850393D02*
X11900943Y-13802774D01*
X11900943Y-13802774D02*
X11910467Y-13764679D01*
X11910467Y-13764679D02*
X11919991Y-13745631D01*
X11919991Y-13745631D02*
X11929515Y-13736108D01*
X11929515Y-13736108D02*
X11948562Y-13726584D01*
X12139039Y-13726584D02*
X12158086Y-13726584D01*
X12158086Y-13726584D02*
X12177134Y-13736108D01*
X12177134Y-13736108D02*
X12186658Y-13745631D01*
X12186658Y-13745631D02*
X12196182Y-13764679D01*
X12196182Y-13764679D02*
X12205705Y-13802774D01*
X12205705Y-13802774D02*
X12205705Y-13850393D01*
X12205705Y-13850393D02*
X12196182Y-13888488D01*
X12196182Y-13888488D02*
X12186658Y-13907536D01*
X12186658Y-13907536D02*
X12177134Y-13917060D01*
X12177134Y-13917060D02*
X12158086Y-13926584D01*
X12158086Y-13926584D02*
X12139039Y-13926584D01*
X12139039Y-13926584D02*
X12119991Y-13917060D01*
X12119991Y-13917060D02*
X12110467Y-13907536D01*
X12110467Y-13907536D02*
X12100943Y-13888488D01*
X12100943Y-13888488D02*
X12091420Y-13850393D01*
X12091420Y-13850393D02*
X12091420Y-13802774D01*
X12091420Y-13802774D02*
X12100943Y-13764679D01*
X12100943Y-13764679D02*
X12110467Y-13745631D01*
X12110467Y-13745631D02*
X12119991Y-13736108D01*
X12119991Y-13736108D02*
X12139039Y-13726584D01*
X12291420Y-13926584D02*
X12291420Y-13793250D01*
X12291420Y-13812298D02*
X12300943Y-13802774D01*
X12300943Y-13802774D02*
X12319991Y-13793250D01*
X12319991Y-13793250D02*
X12348563Y-13793250D01*
X12348563Y-13793250D02*
X12367610Y-13802774D01*
X12367610Y-13802774D02*
X12377134Y-13821822D01*
X12377134Y-13821822D02*
X12377134Y-13926584D01*
X12377134Y-13821822D02*
X12386658Y-13802774D01*
X12386658Y-13802774D02*
X12405705Y-13793250D01*
X12405705Y-13793250D02*
X12434277Y-13793250D01*
X12434277Y-13793250D02*
X12453324Y-13802774D01*
X12453324Y-13802774D02*
X12462848Y-13821822D01*
X12462848Y-13821822D02*
X12462848Y-13926584D01*
X12558086Y-13926584D02*
X12558086Y-13793250D01*
X12558086Y-13812298D02*
X12567610Y-13802774D01*
X12567610Y-13802774D02*
X12586658Y-13793250D01*
X12586658Y-13793250D02*
X12615229Y-13793250D01*
X12615229Y-13793250D02*
X12634277Y-13802774D01*
X12634277Y-13802774D02*
X12643801Y-13821822D01*
X12643801Y-13821822D02*
X12643801Y-13926584D01*
X12643801Y-13821822D02*
X12653324Y-13802774D01*
X12653324Y-13802774D02*
X12672372Y-13793250D01*
X12672372Y-13793250D02*
X12700943Y-13793250D01*
X12700943Y-13793250D02*
X12719991Y-13802774D01*
X12719991Y-13802774D02*
X12729515Y-13821822D01*
X12729515Y-13821822D02*
X12729515Y-13926584D01*
X13119991Y-13717060D02*
X12948563Y-13974203D01*
X13377134Y-13726584D02*
X13396182Y-13726584D01*
X13396182Y-13726584D02*
X13415229Y-13736108D01*
X13415229Y-13736108D02*
X13424753Y-13745631D01*
X13424753Y-13745631D02*
X13434277Y-13764679D01*
X13434277Y-13764679D02*
X13443801Y-13802774D01*
X13443801Y-13802774D02*
X13443801Y-13850393D01*
X13443801Y-13850393D02*
X13434277Y-13888488D01*
X13434277Y-13888488D02*
X13424753Y-13907536D01*
X13424753Y-13907536D02*
X13415229Y-13917060D01*
X13415229Y-13917060D02*
X13396182Y-13926584D01*
X13396182Y-13926584D02*
X13377134Y-13926584D01*
X13377134Y-13926584D02*
X13358086Y-13917060D01*
X13358086Y-13917060D02*
X13348563Y-13907536D01*
X13348563Y-13907536D02*
X13339039Y-13888488D01*
X13339039Y-13888488D02*
X13329515Y-13850393D01*
X13329515Y-13850393D02*
X13329515Y-13802774D01*
X13329515Y-13802774D02*
X13339039Y-13764679D01*
X13339039Y-13764679D02*
X13348563Y-13745631D01*
X13348563Y-13745631D02*
X13358086Y-13736108D01*
X13358086Y-13736108D02*
X13377134Y-13726584D01*
X13529515Y-13907536D02*
X13539039Y-13917060D01*
X13539039Y-13917060D02*
X13529515Y-13926584D01*
X13529515Y-13926584D02*
X13519991Y-13917060D01*
X13519991Y-13917060D02*
X13529515Y-13907536D01*
X13529515Y-13907536D02*
X13529515Y-13926584D01*
X13662848Y-13726584D02*
X13681896Y-13726584D01*
X13681896Y-13726584D02*
X13700944Y-13736108D01*
X13700944Y-13736108D02*
X13710467Y-13745631D01*
X13710467Y-13745631D02*
X13719991Y-13764679D01*
X13719991Y-13764679D02*
X13729515Y-13802774D01*
X13729515Y-13802774D02*
X13729515Y-13850393D01*
X13729515Y-13850393D02*
X13719991Y-13888488D01*
X13719991Y-13888488D02*
X13710467Y-13907536D01*
X13710467Y-13907536D02*
X13700944Y-13917060D01*
X13700944Y-13917060D02*
X13681896Y-13926584D01*
X13681896Y-13926584D02*
X13662848Y-13926584D01*
X13662848Y-13926584D02*
X13643801Y-13917060D01*
X13643801Y-13917060D02*
X13634277Y-13907536D01*
X13634277Y-13907536D02*
X13624753Y-13888488D01*
X13624753Y-13888488D02*
X13615229Y-13850393D01*
X13615229Y-13850393D02*
X13615229Y-13802774D01*
X13615229Y-13802774D02*
X13624753Y-13764679D01*
X13624753Y-13764679D02*
X13634277Y-13745631D01*
X13634277Y-13745631D02*
X13643801Y-13736108D01*
X13643801Y-13736108D02*
X13662848Y-13726584D01*
X13796182Y-13726584D02*
X13919991Y-13726584D01*
X13919991Y-13726584D02*
X13853325Y-13802774D01*
X13853325Y-13802774D02*
X13881896Y-13802774D01*
X13881896Y-13802774D02*
X13900944Y-13812298D01*
X13900944Y-13812298D02*
X13910467Y-13821822D01*
X13910467Y-13821822D02*
X13919991Y-13840869D01*
X13919991Y-13840869D02*
X13919991Y-13888488D01*
X13919991Y-13888488D02*
X13910467Y-13907536D01*
X13910467Y-13907536D02*
X13900944Y-13917060D01*
X13900944Y-13917060D02*
X13881896Y-13926584D01*
X13881896Y-13926584D02*
X13824753Y-13926584D01*
X13824753Y-13926584D02*
X13805706Y-13917060D01*
X13805706Y-13917060D02*
X13796182Y-13907536D01*
X14100944Y-13726584D02*
X14005706Y-13726584D01*
X14005706Y-13726584D02*
X13996182Y-13821822D01*
X13996182Y-13821822D02*
X14005706Y-13812298D01*
X14005706Y-13812298D02*
X14024753Y-13802774D01*
X14024753Y-13802774D02*
X14072372Y-13802774D01*
X14072372Y-13802774D02*
X14091420Y-13812298D01*
X14091420Y-13812298D02*
X14100944Y-13821822D01*
X14100944Y-13821822D02*
X14110467Y-13840869D01*
X14110467Y-13840869D02*
X14110467Y-13888488D01*
X14110467Y-13888488D02*
X14100944Y-13907536D01*
X14100944Y-13907536D02*
X14091420Y-13917060D01*
X14091420Y-13917060D02*
X14072372Y-13926584D01*
X14072372Y-13926584D02*
X14024753Y-13926584D01*
X14024753Y-13926584D02*
X14005706Y-13917060D01*
X14005706Y-13917060D02*
X13996182Y-13907536D01*
X14281896Y-13793250D02*
X14281896Y-13926584D01*
X14234277Y-13717060D02*
X14186658Y-13859917D01*
X14186658Y-13859917D02*
X14310467Y-13859917D01*
X14377134Y-13726584D02*
X14377134Y-13764679D01*
X14453325Y-13726584D02*
X14453325Y-13764679D01*
X14748563Y-14002774D02*
X14739039Y-13993250D01*
X14739039Y-13993250D02*
X14719991Y-13964679D01*
X14719991Y-13964679D02*
X14710468Y-13945631D01*
X14710468Y-13945631D02*
X14700944Y-13917060D01*
X14700944Y-13917060D02*
X14691420Y-13869441D01*
X14691420Y-13869441D02*
X14691420Y-13831346D01*
X14691420Y-13831346D02*
X14700944Y-13783727D01*
X14700944Y-13783727D02*
X14710468Y-13755155D01*
X14710468Y-13755155D02*
X14719991Y-13736108D01*
X14719991Y-13736108D02*
X14739039Y-13707536D01*
X14739039Y-13707536D02*
X14748563Y-13698012D01*
X14910468Y-13793250D02*
X14910468Y-13926584D01*
X14862848Y-13717060D02*
X14815229Y-13859917D01*
X14815229Y-13859917D02*
X14939039Y-13859917D01*
X15167610Y-13926584D02*
X15167610Y-13726584D01*
X15253325Y-13926584D02*
X15253325Y-13821822D01*
X15253325Y-13821822D02*
X15243801Y-13802774D01*
X15243801Y-13802774D02*
X15224753Y-13793250D01*
X15224753Y-13793250D02*
X15196182Y-13793250D01*
X15196182Y-13793250D02*
X15177134Y-13802774D01*
X15177134Y-13802774D02*
X15167610Y-13812298D01*
X15377134Y-13926584D02*
X15358087Y-13917060D01*
X15358087Y-13917060D02*
X15348563Y-13907536D01*
X15348563Y-13907536D02*
X15339039Y-13888488D01*
X15339039Y-13888488D02*
X15339039Y-13831346D01*
X15339039Y-13831346D02*
X15348563Y-13812298D01*
X15348563Y-13812298D02*
X15358087Y-13802774D01*
X15358087Y-13802774D02*
X15377134Y-13793250D01*
X15377134Y-13793250D02*
X15405706Y-13793250D01*
X15405706Y-13793250D02*
X15424753Y-13802774D01*
X15424753Y-13802774D02*
X15434277Y-13812298D01*
X15434277Y-13812298D02*
X15443801Y-13831346D01*
X15443801Y-13831346D02*
X15443801Y-13888488D01*
X15443801Y-13888488D02*
X15434277Y-13907536D01*
X15434277Y-13907536D02*
X15424753Y-13917060D01*
X15424753Y-13917060D02*
X15405706Y-13926584D01*
X15405706Y-13926584D02*
X15377134Y-13926584D01*
X15558087Y-13926584D02*
X15539039Y-13917060D01*
X15539039Y-13917060D02*
X15529515Y-13898012D01*
X15529515Y-13898012D02*
X15529515Y-13726584D01*
X15710468Y-13917060D02*
X15691420Y-13926584D01*
X15691420Y-13926584D02*
X15653325Y-13926584D01*
X15653325Y-13926584D02*
X15634277Y-13917060D01*
X15634277Y-13917060D02*
X15624753Y-13898012D01*
X15624753Y-13898012D02*
X15624753Y-13821822D01*
X15624753Y-13821822D02*
X15634277Y-13802774D01*
X15634277Y-13802774D02*
X15653325Y-13793250D01*
X15653325Y-13793250D02*
X15691420Y-13793250D01*
X15691420Y-13793250D02*
X15710468Y-13802774D01*
X15710468Y-13802774D02*
X15719991Y-13821822D01*
X15719991Y-13821822D02*
X15719991Y-13840869D01*
X15719991Y-13840869D02*
X15624753Y-13859917D01*
X15796182Y-13917060D02*
X15815230Y-13926584D01*
X15815230Y-13926584D02*
X15853325Y-13926584D01*
X15853325Y-13926584D02*
X15872372Y-13917060D01*
X15872372Y-13917060D02*
X15881896Y-13898012D01*
X15881896Y-13898012D02*
X15881896Y-13888488D01*
X15881896Y-13888488D02*
X15872372Y-13869441D01*
X15872372Y-13869441D02*
X15853325Y-13859917D01*
X15853325Y-13859917D02*
X15824753Y-13859917D01*
X15824753Y-13859917D02*
X15805706Y-13850393D01*
X15805706Y-13850393D02*
X15796182Y-13831346D01*
X15796182Y-13831346D02*
X15796182Y-13821822D01*
X15796182Y-13821822D02*
X15805706Y-13802774D01*
X15805706Y-13802774D02*
X15824753Y-13793250D01*
X15824753Y-13793250D02*
X15853325Y-13793250D01*
X15853325Y-13793250D02*
X15872372Y-13802774D01*
X15948563Y-14002774D02*
X15958087Y-13993250D01*
X15958087Y-13993250D02*
X15977134Y-13964679D01*
X15977134Y-13964679D02*
X15986658Y-13945631D01*
X15986658Y-13945631D02*
X15996182Y-13917060D01*
X15996182Y-13917060D02*
X16005706Y-13869441D01*
X16005706Y-13869441D02*
X16005706Y-13831346D01*
X16005706Y-13831346D02*
X15996182Y-13783727D01*
X15996182Y-13783727D02*
X15986658Y-13755155D01*
X15986658Y-13755155D02*
X15977134Y-13736108D01*
X15977134Y-13736108D02*
X15958087Y-13707536D01*
X15958087Y-13707536D02*
X15948563Y-13698012D01*
D12*
X11123500Y-14049100D02*
X11123500Y-14149100D01*
X11073500Y-14099100D02*
X11173500Y-14099100D01*
D11*
X11539039Y-14190584D02*
X11424753Y-14190584D01*
X11481896Y-14190584D02*
X11481896Y-13990584D01*
X11481896Y-13990584D02*
X11462848Y-14019155D01*
X11462848Y-14019155D02*
X11443801Y-14038203D01*
X11443801Y-14038203D02*
X11424753Y-14047727D01*
X11624753Y-14171536D02*
X11634277Y-14181060D01*
X11634277Y-14181060D02*
X11624753Y-14190584D01*
X11624753Y-14190584D02*
X11615229Y-14181060D01*
X11615229Y-14181060D02*
X11624753Y-14171536D01*
X11624753Y-14171536D02*
X11624753Y-14190584D01*
X11758086Y-13990584D02*
X11777134Y-13990584D01*
X11777134Y-13990584D02*
X11796182Y-14000108D01*
X11796182Y-14000108D02*
X11805705Y-14009631D01*
X11805705Y-14009631D02*
X11815229Y-14028679D01*
X11815229Y-14028679D02*
X11824753Y-14066774D01*
X11824753Y-14066774D02*
X11824753Y-14114393D01*
X11824753Y-14114393D02*
X11815229Y-14152488D01*
X11815229Y-14152488D02*
X11805705Y-14171536D01*
X11805705Y-14171536D02*
X11796182Y-14181060D01*
X11796182Y-14181060D02*
X11777134Y-14190584D01*
X11777134Y-14190584D02*
X11758086Y-14190584D01*
X11758086Y-14190584D02*
X11739039Y-14181060D01*
X11739039Y-14181060D02*
X11729515Y-14171536D01*
X11729515Y-14171536D02*
X11719991Y-14152488D01*
X11719991Y-14152488D02*
X11710467Y-14114393D01*
X11710467Y-14114393D02*
X11710467Y-14066774D01*
X11710467Y-14066774D02*
X11719991Y-14028679D01*
X11719991Y-14028679D02*
X11729515Y-14009631D01*
X11729515Y-14009631D02*
X11739039Y-14000108D01*
X11739039Y-14000108D02*
X11758086Y-13990584D01*
X11948562Y-13990584D02*
X11967610Y-13990584D01*
X11967610Y-13990584D02*
X11986658Y-14000108D01*
X11986658Y-14000108D02*
X11996182Y-14009631D01*
X11996182Y-14009631D02*
X12005705Y-14028679D01*
X12005705Y-14028679D02*
X12015229Y-14066774D01*
X12015229Y-14066774D02*
X12015229Y-14114393D01*
X12015229Y-14114393D02*
X12005705Y-14152488D01*
X12005705Y-14152488D02*
X11996182Y-14171536D01*
X11996182Y-14171536D02*
X11986658Y-14181060D01*
X11986658Y-14181060D02*
X11967610Y-14190584D01*
X11967610Y-14190584D02*
X11948562Y-14190584D01*
X11948562Y-14190584D02*
X11929515Y-14181060D01*
X11929515Y-14181060D02*
X11919991Y-14171536D01*
X11919991Y-14171536D02*
X11910467Y-14152488D01*
X11910467Y-14152488D02*
X11900943Y-14114393D01*
X11900943Y-14114393D02*
X11900943Y-14066774D01*
X11900943Y-14066774D02*
X11910467Y-14028679D01*
X11910467Y-14028679D02*
X11919991Y-14009631D01*
X11919991Y-14009631D02*
X11929515Y-14000108D01*
X11929515Y-14000108D02*
X11948562Y-13990584D01*
X12139039Y-13990584D02*
X12158086Y-13990584D01*
X12158086Y-13990584D02*
X12177134Y-14000108D01*
X12177134Y-14000108D02*
X12186658Y-14009631D01*
X12186658Y-14009631D02*
X12196182Y-14028679D01*
X12196182Y-14028679D02*
X12205705Y-14066774D01*
X12205705Y-14066774D02*
X12205705Y-14114393D01*
X12205705Y-14114393D02*
X12196182Y-14152488D01*
X12196182Y-14152488D02*
X12186658Y-14171536D01*
X12186658Y-14171536D02*
X12177134Y-14181060D01*
X12177134Y-14181060D02*
X12158086Y-14190584D01*
X12158086Y-14190584D02*
X12139039Y-14190584D01*
X12139039Y-14190584D02*
X12119991Y-14181060D01*
X12119991Y-14181060D02*
X12110467Y-14171536D01*
X12110467Y-14171536D02*
X12100943Y-14152488D01*
X12100943Y-14152488D02*
X12091420Y-14114393D01*
X12091420Y-14114393D02*
X12091420Y-14066774D01*
X12091420Y-14066774D02*
X12100943Y-14028679D01*
X12100943Y-14028679D02*
X12110467Y-14009631D01*
X12110467Y-14009631D02*
X12119991Y-14000108D01*
X12119991Y-14000108D02*
X12139039Y-13990584D01*
X12291420Y-14190584D02*
X12291420Y-14057250D01*
X12291420Y-14076298D02*
X12300943Y-14066774D01*
X12300943Y-14066774D02*
X12319991Y-14057250D01*
X12319991Y-14057250D02*
X12348563Y-14057250D01*
X12348563Y-14057250D02*
X12367610Y-14066774D01*
X12367610Y-14066774D02*
X12377134Y-14085822D01*
X12377134Y-14085822D02*
X12377134Y-14190584D01*
X12377134Y-14085822D02*
X12386658Y-14066774D01*
X12386658Y-14066774D02*
X12405705Y-14057250D01*
X12405705Y-14057250D02*
X12434277Y-14057250D01*
X12434277Y-14057250D02*
X12453324Y-14066774D01*
X12453324Y-14066774D02*
X12462848Y-14085822D01*
X12462848Y-14085822D02*
X12462848Y-14190584D01*
X12558086Y-14190584D02*
X12558086Y-14057250D01*
X12558086Y-14076298D02*
X12567610Y-14066774D01*
X12567610Y-14066774D02*
X12586658Y-14057250D01*
X12586658Y-14057250D02*
X12615229Y-14057250D01*
X12615229Y-14057250D02*
X12634277Y-14066774D01*
X12634277Y-14066774D02*
X12643801Y-14085822D01*
X12643801Y-14085822D02*
X12643801Y-14190584D01*
X12643801Y-14085822D02*
X12653324Y-14066774D01*
X12653324Y-14066774D02*
X12672372Y-14057250D01*
X12672372Y-14057250D02*
X12700943Y-14057250D01*
X12700943Y-14057250D02*
X12719991Y-14066774D01*
X12719991Y-14066774D02*
X12729515Y-14085822D01*
X12729515Y-14085822D02*
X12729515Y-14190584D01*
X13119991Y-13981060D02*
X12948563Y-14238203D01*
X13377134Y-13990584D02*
X13396182Y-13990584D01*
X13396182Y-13990584D02*
X13415229Y-14000108D01*
X13415229Y-14000108D02*
X13424753Y-14009631D01*
X13424753Y-14009631D02*
X13434277Y-14028679D01*
X13434277Y-14028679D02*
X13443801Y-14066774D01*
X13443801Y-14066774D02*
X13443801Y-14114393D01*
X13443801Y-14114393D02*
X13434277Y-14152488D01*
X13434277Y-14152488D02*
X13424753Y-14171536D01*
X13424753Y-14171536D02*
X13415229Y-14181060D01*
X13415229Y-14181060D02*
X13396182Y-14190584D01*
X13396182Y-14190584D02*
X13377134Y-14190584D01*
X13377134Y-14190584D02*
X13358086Y-14181060D01*
X13358086Y-14181060D02*
X13348563Y-14171536D01*
X13348563Y-14171536D02*
X13339039Y-14152488D01*
X13339039Y-14152488D02*
X13329515Y-14114393D01*
X13329515Y-14114393D02*
X13329515Y-14066774D01*
X13329515Y-14066774D02*
X13339039Y-14028679D01*
X13339039Y-14028679D02*
X13348563Y-14009631D01*
X13348563Y-14009631D02*
X13358086Y-14000108D01*
X13358086Y-14000108D02*
X13377134Y-13990584D01*
X13529515Y-14171536D02*
X13539039Y-14181060D01*
X13539039Y-14181060D02*
X13529515Y-14190584D01*
X13529515Y-14190584D02*
X13519991Y-14181060D01*
X13519991Y-14181060D02*
X13529515Y-14171536D01*
X13529515Y-14171536D02*
X13529515Y-14190584D01*
X13662848Y-13990584D02*
X13681896Y-13990584D01*
X13681896Y-13990584D02*
X13700944Y-14000108D01*
X13700944Y-14000108D02*
X13710467Y-14009631D01*
X13710467Y-14009631D02*
X13719991Y-14028679D01*
X13719991Y-14028679D02*
X13729515Y-14066774D01*
X13729515Y-14066774D02*
X13729515Y-14114393D01*
X13729515Y-14114393D02*
X13719991Y-14152488D01*
X13719991Y-14152488D02*
X13710467Y-14171536D01*
X13710467Y-14171536D02*
X13700944Y-14181060D01*
X13700944Y-14181060D02*
X13681896Y-14190584D01*
X13681896Y-14190584D02*
X13662848Y-14190584D01*
X13662848Y-14190584D02*
X13643801Y-14181060D01*
X13643801Y-14181060D02*
X13634277Y-14171536D01*
X13634277Y-14171536D02*
X13624753Y-14152488D01*
X13624753Y-14152488D02*
X13615229Y-14114393D01*
X13615229Y-14114393D02*
X13615229Y-14066774D01*
X13615229Y-14066774D02*
X13624753Y-14028679D01*
X13624753Y-14028679D02*
X13634277Y-14009631D01*
X13634277Y-14009631D02*
X13643801Y-14000108D01*
X13643801Y-14000108D02*
X13662848Y-13990584D01*
X13796182Y-13990584D02*
X13919991Y-13990584D01*
X13919991Y-13990584D02*
X13853325Y-14066774D01*
X13853325Y-14066774D02*
X13881896Y-14066774D01*
X13881896Y-14066774D02*
X13900944Y-14076298D01*
X13900944Y-14076298D02*
X13910467Y-14085822D01*
X13910467Y-14085822D02*
X13919991Y-14104869D01*
X13919991Y-14104869D02*
X13919991Y-14152488D01*
X13919991Y-14152488D02*
X13910467Y-14171536D01*
X13910467Y-14171536D02*
X13900944Y-14181060D01*
X13900944Y-14181060D02*
X13881896Y-14190584D01*
X13881896Y-14190584D02*
X13824753Y-14190584D01*
X13824753Y-14190584D02*
X13805706Y-14181060D01*
X13805706Y-14181060D02*
X13796182Y-14171536D01*
X14015229Y-14190584D02*
X14053325Y-14190584D01*
X14053325Y-14190584D02*
X14072372Y-14181060D01*
X14072372Y-14181060D02*
X14081896Y-14171536D01*
X14081896Y-14171536D02*
X14100944Y-14142965D01*
X14100944Y-14142965D02*
X14110467Y-14104869D01*
X14110467Y-14104869D02*
X14110467Y-14028679D01*
X14110467Y-14028679D02*
X14100944Y-14009631D01*
X14100944Y-14009631D02*
X14091420Y-14000108D01*
X14091420Y-14000108D02*
X14072372Y-13990584D01*
X14072372Y-13990584D02*
X14034277Y-13990584D01*
X14034277Y-13990584D02*
X14015229Y-14000108D01*
X14015229Y-14000108D02*
X14005706Y-14009631D01*
X14005706Y-14009631D02*
X13996182Y-14028679D01*
X13996182Y-14028679D02*
X13996182Y-14076298D01*
X13996182Y-14076298D02*
X14005706Y-14095346D01*
X14005706Y-14095346D02*
X14015229Y-14104869D01*
X14015229Y-14104869D02*
X14034277Y-14114393D01*
X14034277Y-14114393D02*
X14072372Y-14114393D01*
X14072372Y-14114393D02*
X14091420Y-14104869D01*
X14091420Y-14104869D02*
X14100944Y-14095346D01*
X14100944Y-14095346D02*
X14110467Y-14076298D01*
X14281896Y-14057250D02*
X14281896Y-14190584D01*
X14234277Y-13981060D02*
X14186658Y-14123917D01*
X14186658Y-14123917D02*
X14310467Y-14123917D01*
X14377134Y-13990584D02*
X14377134Y-14028679D01*
X14453325Y-13990584D02*
X14453325Y-14028679D01*
X14748563Y-14266774D02*
X14739039Y-14257250D01*
X14739039Y-14257250D02*
X14719991Y-14228679D01*
X14719991Y-14228679D02*
X14710468Y-14209631D01*
X14710468Y-14209631D02*
X14700944Y-14181060D01*
X14700944Y-14181060D02*
X14691420Y-14133441D01*
X14691420Y-14133441D02*
X14691420Y-14095346D01*
X14691420Y-14095346D02*
X14700944Y-14047727D01*
X14700944Y-14047727D02*
X14710468Y-14019155D01*
X14710468Y-14019155D02*
X14719991Y-14000108D01*
X14719991Y-14000108D02*
X14739039Y-13971536D01*
X14739039Y-13971536D02*
X14748563Y-13962012D01*
X14910468Y-14057250D02*
X14910468Y-14190584D01*
X14862848Y-13981060D02*
X14815229Y-14123917D01*
X14815229Y-14123917D02*
X14939039Y-14123917D01*
X15100944Y-13990584D02*
X15062848Y-13990584D01*
X15062848Y-13990584D02*
X15043801Y-14000108D01*
X15043801Y-14000108D02*
X15034277Y-14009631D01*
X15034277Y-14009631D02*
X15015229Y-14038203D01*
X15015229Y-14038203D02*
X15005706Y-14076298D01*
X15005706Y-14076298D02*
X15005706Y-14152488D01*
X15005706Y-14152488D02*
X15015229Y-14171536D01*
X15015229Y-14171536D02*
X15024753Y-14181060D01*
X15024753Y-14181060D02*
X15043801Y-14190584D01*
X15043801Y-14190584D02*
X15081896Y-14190584D01*
X15081896Y-14190584D02*
X15100944Y-14181060D01*
X15100944Y-14181060D02*
X15110468Y-14171536D01*
X15110468Y-14171536D02*
X15119991Y-14152488D01*
X15119991Y-14152488D02*
X15119991Y-14104869D01*
X15119991Y-14104869D02*
X15110468Y-14085822D01*
X15110468Y-14085822D02*
X15100944Y-14076298D01*
X15100944Y-14076298D02*
X15081896Y-14066774D01*
X15081896Y-14066774D02*
X15043801Y-14066774D01*
X15043801Y-14066774D02*
X15024753Y-14076298D01*
X15024753Y-14076298D02*
X15015229Y-14085822D01*
X15015229Y-14085822D02*
X15005706Y-14104869D01*
X15358087Y-14190584D02*
X15358087Y-13990584D01*
X15443801Y-14190584D02*
X15443801Y-14085822D01*
X15443801Y-14085822D02*
X15434277Y-14066774D01*
X15434277Y-14066774D02*
X15415230Y-14057250D01*
X15415230Y-14057250D02*
X15386658Y-14057250D01*
X15386658Y-14057250D02*
X15367610Y-14066774D01*
X15367610Y-14066774D02*
X15358087Y-14076298D01*
X15567610Y-14190584D02*
X15548563Y-14181060D01*
X15548563Y-14181060D02*
X15539039Y-14171536D01*
X15539039Y-14171536D02*
X15529515Y-14152488D01*
X15529515Y-14152488D02*
X15529515Y-14095346D01*
X15529515Y-14095346D02*
X15539039Y-14076298D01*
X15539039Y-14076298D02*
X15548563Y-14066774D01*
X15548563Y-14066774D02*
X15567610Y-14057250D01*
X15567610Y-14057250D02*
X15596182Y-14057250D01*
X15596182Y-14057250D02*
X15615230Y-14066774D01*
X15615230Y-14066774D02*
X15624753Y-14076298D01*
X15624753Y-14076298D02*
X15634277Y-14095346D01*
X15634277Y-14095346D02*
X15634277Y-14152488D01*
X15634277Y-14152488D02*
X15624753Y-14171536D01*
X15624753Y-14171536D02*
X15615230Y-14181060D01*
X15615230Y-14181060D02*
X15596182Y-14190584D01*
X15596182Y-14190584D02*
X15567610Y-14190584D01*
X15748563Y-14190584D02*
X15729515Y-14181060D01*
X15729515Y-14181060D02*
X15719991Y-14162012D01*
X15719991Y-14162012D02*
X15719991Y-13990584D01*
X15900944Y-14181060D02*
X15881896Y-14190584D01*
X15881896Y-14190584D02*
X15843801Y-14190584D01*
X15843801Y-14190584D02*
X15824753Y-14181060D01*
X15824753Y-14181060D02*
X15815230Y-14162012D01*
X15815230Y-14162012D02*
X15815230Y-14085822D01*
X15815230Y-14085822D02*
X15824753Y-14066774D01*
X15824753Y-14066774D02*
X15843801Y-14057250D01*
X15843801Y-14057250D02*
X15881896Y-14057250D01*
X15881896Y-14057250D02*
X15900944Y-14066774D01*
X15900944Y-14066774D02*
X15910468Y-14085822D01*
X15910468Y-14085822D02*
X15910468Y-14104869D01*
X15910468Y-14104869D02*
X15815230Y-14123917D01*
X15986658Y-14181060D02*
X16005706Y-14190584D01*
X16005706Y-14190584D02*
X16043801Y-14190584D01*
X16043801Y-14190584D02*
X16062849Y-14181060D01*
X16062849Y-14181060D02*
X16072372Y-14162012D01*
X16072372Y-14162012D02*
X16072372Y-14152488D01*
X16072372Y-14152488D02*
X16062849Y-14133441D01*
X16062849Y-14133441D02*
X16043801Y-14123917D01*
X16043801Y-14123917D02*
X16015230Y-14123917D01*
X16015230Y-14123917D02*
X15996182Y-14114393D01*
X15996182Y-14114393D02*
X15986658Y-14095346D01*
X15986658Y-14095346D02*
X15986658Y-14085822D01*
X15986658Y-14085822D02*
X15996182Y-14066774D01*
X15996182Y-14066774D02*
X16015230Y-14057250D01*
X16015230Y-14057250D02*
X16043801Y-14057250D01*
X16043801Y-14057250D02*
X16062849Y-14066774D01*
X16139039Y-14266774D02*
X16148563Y-14257250D01*
X16148563Y-14257250D02*
X16167611Y-14228679D01*
X16167611Y-14228679D02*
X16177134Y-14209631D01*
X16177134Y-14209631D02*
X16186658Y-14181060D01*
X16186658Y-14181060D02*
X16196182Y-14133441D01*
X16196182Y-14133441D02*
X16196182Y-14095346D01*
X16196182Y-14095346D02*
X16186658Y-14047727D01*
X16186658Y-14047727D02*
X16177134Y-14019155D01*
X16177134Y-14019155D02*
X16167611Y-14000108D01*
X16167611Y-14000108D02*
X16148563Y-13971536D01*
X16148563Y-13971536D02*
X16139039Y-13962012D01*
D13*
X11157391Y-14401991D02*
X11157391Y-14324209D01*
X11079609Y-14324209D01*
X11079609Y-14401991D01*
X11157391Y-14401991D01*
D11*
X11539039Y-14454584D02*
X11424753Y-14454584D01*
X11481896Y-14454584D02*
X11481896Y-14254584D01*
X11481896Y-14254584D02*
X11462848Y-14283155D01*
X11462848Y-14283155D02*
X11443801Y-14302203D01*
X11443801Y-14302203D02*
X11424753Y-14311727D01*
X11624753Y-14435536D02*
X11634277Y-14445060D01*
X11634277Y-14445060D02*
X11624753Y-14454584D01*
X11624753Y-14454584D02*
X11615229Y-14445060D01*
X11615229Y-14445060D02*
X11624753Y-14435536D01*
X11624753Y-14435536D02*
X11624753Y-14454584D01*
X11824753Y-14454584D02*
X11710467Y-14454584D01*
X11767610Y-14454584D02*
X11767610Y-14254584D01*
X11767610Y-14254584D02*
X11748562Y-14283155D01*
X11748562Y-14283155D02*
X11729515Y-14302203D01*
X11729515Y-14302203D02*
X11710467Y-14311727D01*
X11948562Y-14254584D02*
X11967610Y-14254584D01*
X11967610Y-14254584D02*
X11986658Y-14264108D01*
X11986658Y-14264108D02*
X11996182Y-14273631D01*
X11996182Y-14273631D02*
X12005705Y-14292679D01*
X12005705Y-14292679D02*
X12015229Y-14330774D01*
X12015229Y-14330774D02*
X12015229Y-14378393D01*
X12015229Y-14378393D02*
X12005705Y-14416488D01*
X12005705Y-14416488D02*
X11996182Y-14435536D01*
X11996182Y-14435536D02*
X11986658Y-14445060D01*
X11986658Y-14445060D02*
X11967610Y-14454584D01*
X11967610Y-14454584D02*
X11948562Y-14454584D01*
X11948562Y-14454584D02*
X11929515Y-14445060D01*
X11929515Y-14445060D02*
X11919991Y-14435536D01*
X11919991Y-14435536D02*
X11910467Y-14416488D01*
X11910467Y-14416488D02*
X11900943Y-14378393D01*
X11900943Y-14378393D02*
X11900943Y-14330774D01*
X11900943Y-14330774D02*
X11910467Y-14292679D01*
X11910467Y-14292679D02*
X11919991Y-14273631D01*
X11919991Y-14273631D02*
X11929515Y-14264108D01*
X11929515Y-14264108D02*
X11948562Y-14254584D01*
X12139039Y-14254584D02*
X12158086Y-14254584D01*
X12158086Y-14254584D02*
X12177134Y-14264108D01*
X12177134Y-14264108D02*
X12186658Y-14273631D01*
X12186658Y-14273631D02*
X12196182Y-14292679D01*
X12196182Y-14292679D02*
X12205705Y-14330774D01*
X12205705Y-14330774D02*
X12205705Y-14378393D01*
X12205705Y-14378393D02*
X12196182Y-14416488D01*
X12196182Y-14416488D02*
X12186658Y-14435536D01*
X12186658Y-14435536D02*
X12177134Y-14445060D01*
X12177134Y-14445060D02*
X12158086Y-14454584D01*
X12158086Y-14454584D02*
X12139039Y-14454584D01*
X12139039Y-14454584D02*
X12119991Y-14445060D01*
X12119991Y-14445060D02*
X12110467Y-14435536D01*
X12110467Y-14435536D02*
X12100943Y-14416488D01*
X12100943Y-14416488D02*
X12091420Y-14378393D01*
X12091420Y-14378393D02*
X12091420Y-14330774D01*
X12091420Y-14330774D02*
X12100943Y-14292679D01*
X12100943Y-14292679D02*
X12110467Y-14273631D01*
X12110467Y-14273631D02*
X12119991Y-14264108D01*
X12119991Y-14264108D02*
X12139039Y-14254584D01*
X12291420Y-14454584D02*
X12291420Y-14321250D01*
X12291420Y-14340298D02*
X12300943Y-14330774D01*
X12300943Y-14330774D02*
X12319991Y-14321250D01*
X12319991Y-14321250D02*
X12348563Y-14321250D01*
X12348563Y-14321250D02*
X12367610Y-14330774D01*
X12367610Y-14330774D02*
X12377134Y-14349822D01*
X12377134Y-14349822D02*
X12377134Y-14454584D01*
X12377134Y-14349822D02*
X12386658Y-14330774D01*
X12386658Y-14330774D02*
X12405705Y-14321250D01*
X12405705Y-14321250D02*
X12434277Y-14321250D01*
X12434277Y-14321250D02*
X12453324Y-14330774D01*
X12453324Y-14330774D02*
X12462848Y-14349822D01*
X12462848Y-14349822D02*
X12462848Y-14454584D01*
X12558086Y-14454584D02*
X12558086Y-14321250D01*
X12558086Y-14340298D02*
X12567610Y-14330774D01*
X12567610Y-14330774D02*
X12586658Y-14321250D01*
X12586658Y-14321250D02*
X12615229Y-14321250D01*
X12615229Y-14321250D02*
X12634277Y-14330774D01*
X12634277Y-14330774D02*
X12643801Y-14349822D01*
X12643801Y-14349822D02*
X12643801Y-14454584D01*
X12643801Y-14349822D02*
X12653324Y-14330774D01*
X12653324Y-14330774D02*
X12672372Y-14321250D01*
X12672372Y-14321250D02*
X12700943Y-14321250D01*
X12700943Y-14321250D02*
X12719991Y-14330774D01*
X12719991Y-14330774D02*
X12729515Y-14349822D01*
X12729515Y-14349822D02*
X12729515Y-14454584D01*
X13119991Y-14245060D02*
X12948563Y-14502203D01*
X13377134Y-14254584D02*
X13396182Y-14254584D01*
X13396182Y-14254584D02*
X13415229Y-14264108D01*
X13415229Y-14264108D02*
X13424753Y-14273631D01*
X13424753Y-14273631D02*
X13434277Y-14292679D01*
X13434277Y-14292679D02*
X13443801Y-14330774D01*
X13443801Y-14330774D02*
X13443801Y-14378393D01*
X13443801Y-14378393D02*
X13434277Y-14416488D01*
X13434277Y-14416488D02*
X13424753Y-14435536D01*
X13424753Y-14435536D02*
X13415229Y-14445060D01*
X13415229Y-14445060D02*
X13396182Y-14454584D01*
X13396182Y-14454584D02*
X13377134Y-14454584D01*
X13377134Y-14454584D02*
X13358086Y-14445060D01*
X13358086Y-14445060D02*
X13348563Y-14435536D01*
X13348563Y-14435536D02*
X13339039Y-14416488D01*
X13339039Y-14416488D02*
X13329515Y-14378393D01*
X13329515Y-14378393D02*
X13329515Y-14330774D01*
X13329515Y-14330774D02*
X13339039Y-14292679D01*
X13339039Y-14292679D02*
X13348563Y-14273631D01*
X13348563Y-14273631D02*
X13358086Y-14264108D01*
X13358086Y-14264108D02*
X13377134Y-14254584D01*
X13529515Y-14435536D02*
X13539039Y-14445060D01*
X13539039Y-14445060D02*
X13529515Y-14454584D01*
X13529515Y-14454584D02*
X13519991Y-14445060D01*
X13519991Y-14445060D02*
X13529515Y-14435536D01*
X13529515Y-14435536D02*
X13529515Y-14454584D01*
X13662848Y-14254584D02*
X13681896Y-14254584D01*
X13681896Y-14254584D02*
X13700944Y-14264108D01*
X13700944Y-14264108D02*
X13710467Y-14273631D01*
X13710467Y-14273631D02*
X13719991Y-14292679D01*
X13719991Y-14292679D02*
X13729515Y-14330774D01*
X13729515Y-14330774D02*
X13729515Y-14378393D01*
X13729515Y-14378393D02*
X13719991Y-14416488D01*
X13719991Y-14416488D02*
X13710467Y-14435536D01*
X13710467Y-14435536D02*
X13700944Y-14445060D01*
X13700944Y-14445060D02*
X13681896Y-14454584D01*
X13681896Y-14454584D02*
X13662848Y-14454584D01*
X13662848Y-14454584D02*
X13643801Y-14445060D01*
X13643801Y-14445060D02*
X13634277Y-14435536D01*
X13634277Y-14435536D02*
X13624753Y-14416488D01*
X13624753Y-14416488D02*
X13615229Y-14378393D01*
X13615229Y-14378393D02*
X13615229Y-14330774D01*
X13615229Y-14330774D02*
X13624753Y-14292679D01*
X13624753Y-14292679D02*
X13634277Y-14273631D01*
X13634277Y-14273631D02*
X13643801Y-14264108D01*
X13643801Y-14264108D02*
X13662848Y-14254584D01*
X13900944Y-14321250D02*
X13900944Y-14454584D01*
X13853325Y-14245060D02*
X13805706Y-14387917D01*
X13805706Y-14387917D02*
X13929515Y-14387917D01*
X13986658Y-14254584D02*
X14110467Y-14254584D01*
X14110467Y-14254584D02*
X14043801Y-14330774D01*
X14043801Y-14330774D02*
X14072372Y-14330774D01*
X14072372Y-14330774D02*
X14091420Y-14340298D01*
X14091420Y-14340298D02*
X14100944Y-14349822D01*
X14100944Y-14349822D02*
X14110467Y-14368869D01*
X14110467Y-14368869D02*
X14110467Y-14416488D01*
X14110467Y-14416488D02*
X14100944Y-14435536D01*
X14100944Y-14435536D02*
X14091420Y-14445060D01*
X14091420Y-14445060D02*
X14072372Y-14454584D01*
X14072372Y-14454584D02*
X14015229Y-14454584D01*
X14015229Y-14454584D02*
X13996182Y-14445060D01*
X13996182Y-14445060D02*
X13986658Y-14435536D01*
X14177134Y-14254584D02*
X14300944Y-14254584D01*
X14300944Y-14254584D02*
X14234277Y-14330774D01*
X14234277Y-14330774D02*
X14262848Y-14330774D01*
X14262848Y-14330774D02*
X14281896Y-14340298D01*
X14281896Y-14340298D02*
X14291420Y-14349822D01*
X14291420Y-14349822D02*
X14300944Y-14368869D01*
X14300944Y-14368869D02*
X14300944Y-14416488D01*
X14300944Y-14416488D02*
X14291420Y-14435536D01*
X14291420Y-14435536D02*
X14281896Y-14445060D01*
X14281896Y-14445060D02*
X14262848Y-14454584D01*
X14262848Y-14454584D02*
X14205706Y-14454584D01*
X14205706Y-14454584D02*
X14186658Y-14445060D01*
X14186658Y-14445060D02*
X14177134Y-14435536D01*
X14377134Y-14254584D02*
X14377134Y-14292679D01*
X14453325Y-14254584D02*
X14453325Y-14292679D01*
X14748563Y-14530774D02*
X14739039Y-14521250D01*
X14739039Y-14521250D02*
X14719991Y-14492679D01*
X14719991Y-14492679D02*
X14710468Y-14473631D01*
X14710468Y-14473631D02*
X14700944Y-14445060D01*
X14700944Y-14445060D02*
X14691420Y-14397441D01*
X14691420Y-14397441D02*
X14691420Y-14359346D01*
X14691420Y-14359346D02*
X14700944Y-14311727D01*
X14700944Y-14311727D02*
X14710468Y-14283155D01*
X14710468Y-14283155D02*
X14719991Y-14264108D01*
X14719991Y-14264108D02*
X14739039Y-14235536D01*
X14739039Y-14235536D02*
X14748563Y-14226012D01*
X14910468Y-14321250D02*
X14910468Y-14454584D01*
X14862848Y-14245060D02*
X14815229Y-14387917D01*
X14815229Y-14387917D02*
X14939039Y-14387917D01*
X15167610Y-14454584D02*
X15167610Y-14254584D01*
X15253325Y-14454584D02*
X15253325Y-14349822D01*
X15253325Y-14349822D02*
X15243801Y-14330774D01*
X15243801Y-14330774D02*
X15224753Y-14321250D01*
X15224753Y-14321250D02*
X15196182Y-14321250D01*
X15196182Y-14321250D02*
X15177134Y-14330774D01*
X15177134Y-14330774D02*
X15167610Y-14340298D01*
X15377134Y-14454584D02*
X15358087Y-14445060D01*
X15358087Y-14445060D02*
X15348563Y-14435536D01*
X15348563Y-14435536D02*
X15339039Y-14416488D01*
X15339039Y-14416488D02*
X15339039Y-14359346D01*
X15339039Y-14359346D02*
X15348563Y-14340298D01*
X15348563Y-14340298D02*
X15358087Y-14330774D01*
X15358087Y-14330774D02*
X15377134Y-14321250D01*
X15377134Y-14321250D02*
X15405706Y-14321250D01*
X15405706Y-14321250D02*
X15424753Y-14330774D01*
X15424753Y-14330774D02*
X15434277Y-14340298D01*
X15434277Y-14340298D02*
X15443801Y-14359346D01*
X15443801Y-14359346D02*
X15443801Y-14416488D01*
X15443801Y-14416488D02*
X15434277Y-14435536D01*
X15434277Y-14435536D02*
X15424753Y-14445060D01*
X15424753Y-14445060D02*
X15405706Y-14454584D01*
X15405706Y-14454584D02*
X15377134Y-14454584D01*
X15558087Y-14454584D02*
X15539039Y-14445060D01*
X15539039Y-14445060D02*
X15529515Y-14426012D01*
X15529515Y-14426012D02*
X15529515Y-14254584D01*
X15710468Y-14445060D02*
X15691420Y-14454584D01*
X15691420Y-14454584D02*
X15653325Y-14454584D01*
X15653325Y-14454584D02*
X15634277Y-14445060D01*
X15634277Y-14445060D02*
X15624753Y-14426012D01*
X15624753Y-14426012D02*
X15624753Y-14349822D01*
X15624753Y-14349822D02*
X15634277Y-14330774D01*
X15634277Y-14330774D02*
X15653325Y-14321250D01*
X15653325Y-14321250D02*
X15691420Y-14321250D01*
X15691420Y-14321250D02*
X15710468Y-14330774D01*
X15710468Y-14330774D02*
X15719991Y-14349822D01*
X15719991Y-14349822D02*
X15719991Y-14368869D01*
X15719991Y-14368869D02*
X15624753Y-14387917D01*
X15796182Y-14445060D02*
X15815230Y-14454584D01*
X15815230Y-14454584D02*
X15853325Y-14454584D01*
X15853325Y-14454584D02*
X15872372Y-14445060D01*
X15872372Y-14445060D02*
X15881896Y-14426012D01*
X15881896Y-14426012D02*
X15881896Y-14416488D01*
X15881896Y-14416488D02*
X15872372Y-14397441D01*
X15872372Y-14397441D02*
X15853325Y-14387917D01*
X15853325Y-14387917D02*
X15824753Y-14387917D01*
X15824753Y-14387917D02*
X15805706Y-14378393D01*
X15805706Y-14378393D02*
X15796182Y-14359346D01*
X15796182Y-14359346D02*
X15796182Y-14349822D01*
X15796182Y-14349822D02*
X15805706Y-14330774D01*
X15805706Y-14330774D02*
X15824753Y-14321250D01*
X15824753Y-14321250D02*
X15853325Y-14321250D01*
X15853325Y-14321250D02*
X15872372Y-14330774D01*
X15948563Y-14530774D02*
X15958087Y-14521250D01*
X15958087Y-14521250D02*
X15977134Y-14492679D01*
X15977134Y-14492679D02*
X15986658Y-14473631D01*
X15986658Y-14473631D02*
X15996182Y-14445060D01*
X15996182Y-14445060D02*
X16005706Y-14397441D01*
X16005706Y-14397441D02*
X16005706Y-14359346D01*
X16005706Y-14359346D02*
X15996182Y-14311727D01*
X15996182Y-14311727D02*
X15986658Y-14283155D01*
X15986658Y-14283155D02*
X15977134Y-14264108D01*
X15977134Y-14264108D02*
X15958087Y-14235536D01*
X15958087Y-14235536D02*
X15948563Y-14226012D01*
M02*
