M48
; DRILL file {KiCad 8.0.3} date 2025-02-15T11:00:27+1300
; FORMAT={-:-/ absolute / metric / decimal}
; #@! TF.CreationDate,2025-02-15T11:00:27+13:00
; #@! TF.GenerationSoftware,Kicad,Pcbnew,8.0.3
; #@! TF.FileFunction,Plated,1,2,PTH
FMAT,2
METRIC
; #@! TA.AperFunction,Plated,PTH,ComponentDrill
T1C0.700
; #@! TA.AperFunction,Plated,PTH,ComponentDrill
T2C0.900
; #@! TA.AperFunction,Plated,PTH,ComponentDrill
T3C1.000
; #@! TA.AperFunction,Plated,PTH,ComponentDrill
T4C1.100
%
G90
G05
T1
X140.97Y-78.486
X140.97Y-86.106
X143.51Y-78.486
X143.51Y-86.106
T2
X123.19Y-72.136
X125.73Y-72.136
X132.08Y-72.136
X134.62Y-72.136
T3
X120.15Y-81.096
X120.15Y-83.636
X120.15Y-86.176
X120.15Y-88.716
X120.15Y-91.256
X120.15Y-93.796
X120.15Y-96.336
X120.15Y-98.876
X120.15Y-101.416
X120.15Y-103.956
X120.15Y-106.496
X120.15Y-109.036
X120.15Y-111.576
X120.15Y-114.116
X120.15Y-116.656
X135.39Y-81.096
X135.39Y-83.636
X135.39Y-86.176
X135.39Y-88.716
X135.39Y-91.256
X135.39Y-93.796
X135.39Y-96.336
X135.39Y-98.876
X135.39Y-101.416
X135.39Y-103.956
X135.39Y-106.496
X135.39Y-109.036
X135.39Y-111.576
X135.39Y-114.116
X135.39Y-116.656
X153.67Y-87.376
X153.67Y-89.916
X153.67Y-92.456
X153.67Y-94.996
X153.67Y-97.536
X153.67Y-100.076
X153.67Y-102.616
X153.67Y-105.156
X161.29Y-87.376
X161.29Y-89.916
X161.29Y-92.456
X161.29Y-94.996
X161.29Y-97.536
X161.29Y-100.076
X161.29Y-102.616
X161.29Y-105.156
T4
X155.5Y-116.256
X155.5Y-120.756
X162.0Y-116.256
X162.0Y-120.756
M30
