%TF.GenerationSoftware,KiCad,Pcbnew,8.0.3*%
%TF.CreationDate,2025-02-02T14:21:54+13:00*%
%TF.ProjectId,2102_sram_tester,32313032-5f73-4726-916d-5f7465737465,rev?*%
%TF.SameCoordinates,Original*%
%TF.FileFunction,Drillmap*%
%TF.FilePolarity,Positive*%
%FSLAX45Y45*%
G04 Gerber Fmt 4.5, Leading zero omitted, Abs format (unit mm)*
G04 Created by KiCad (PCBNEW 8.0.3) date 2025-02-02 14:21:54*
%MOMM*%
%LPD*%
G01*
G04 APERTURE LIST*
%ADD10C,0.050000*%
%ADD11C,0.200000*%
%ADD12C,0.320000*%
G04 APERTURE END LIST*
D10*
X17272000Y-6832600D02*
X11430000Y-6832600D01*
X17526000Y-12674600D02*
X17526000Y-7086600D01*
X11176000Y-7086600D02*
G75*
G02*
X11430000Y-6832600I254000J0D01*
G01*
X11430000Y-12928600D02*
X17272000Y-12928600D01*
X17272000Y-6832600D02*
G75*
G02*
X17526000Y-7086600I0J-254000D01*
G01*
X11430000Y-12928600D02*
G75*
G02*
X11176000Y-12674600I0J254000D01*
G01*
X17526000Y-12674600D02*
G75*
G02*
X17272000Y-12928600I-254000J0D01*
G01*
X11176000Y-7086600D02*
X11176000Y-12674600D01*
D11*
D12*
X11397000Y-7053600D02*
X11717000Y-7373600D01*
X11717000Y-7053600D02*
X11397000Y-7373600D01*
X11397000Y-12387600D02*
X11717000Y-12707600D01*
X11717000Y-12387600D02*
X11397000Y-12707600D01*
X16985000Y-7053600D02*
X17305000Y-7373600D01*
X17305000Y-7053600D02*
X16985000Y-7373600D01*
X16985000Y-12387600D02*
X17305000Y-12707600D01*
X17305000Y-12387600D02*
X16985000Y-12707600D01*
D11*
X11434277Y-13242584D02*
X11434277Y-13042584D01*
X11434277Y-13042584D02*
X11481896Y-13042584D01*
X11481896Y-13042584D02*
X11510467Y-13052108D01*
X11510467Y-13052108D02*
X11529515Y-13071155D01*
X11529515Y-13071155D02*
X11539039Y-13090203D01*
X11539039Y-13090203D02*
X11548562Y-13128298D01*
X11548562Y-13128298D02*
X11548562Y-13156869D01*
X11548562Y-13156869D02*
X11539039Y-13194965D01*
X11539039Y-13194965D02*
X11529515Y-13214012D01*
X11529515Y-13214012D02*
X11510467Y-13233060D01*
X11510467Y-13233060D02*
X11481896Y-13242584D01*
X11481896Y-13242584D02*
X11434277Y-13242584D01*
X11634277Y-13242584D02*
X11634277Y-13109250D01*
X11634277Y-13147346D02*
X11643801Y-13128298D01*
X11643801Y-13128298D02*
X11653324Y-13118774D01*
X11653324Y-13118774D02*
X11672372Y-13109250D01*
X11672372Y-13109250D02*
X11691420Y-13109250D01*
X11758086Y-13242584D02*
X11758086Y-13109250D01*
X11758086Y-13042584D02*
X11748562Y-13052108D01*
X11748562Y-13052108D02*
X11758086Y-13061631D01*
X11758086Y-13061631D02*
X11767610Y-13052108D01*
X11767610Y-13052108D02*
X11758086Y-13042584D01*
X11758086Y-13042584D02*
X11758086Y-13061631D01*
X11881896Y-13242584D02*
X11862848Y-13233060D01*
X11862848Y-13233060D02*
X11853324Y-13214012D01*
X11853324Y-13214012D02*
X11853324Y-13042584D01*
X11986658Y-13242584D02*
X11967610Y-13233060D01*
X11967610Y-13233060D02*
X11958086Y-13214012D01*
X11958086Y-13214012D02*
X11958086Y-13042584D01*
X12215229Y-13242584D02*
X12215229Y-13042584D01*
X12215229Y-13042584D02*
X12281896Y-13185441D01*
X12281896Y-13185441D02*
X12348562Y-13042584D01*
X12348562Y-13042584D02*
X12348562Y-13242584D01*
X12529515Y-13242584D02*
X12529515Y-13137822D01*
X12529515Y-13137822D02*
X12519991Y-13118774D01*
X12519991Y-13118774D02*
X12500943Y-13109250D01*
X12500943Y-13109250D02*
X12462848Y-13109250D01*
X12462848Y-13109250D02*
X12443801Y-13118774D01*
X12529515Y-13233060D02*
X12510467Y-13242584D01*
X12510467Y-13242584D02*
X12462848Y-13242584D01*
X12462848Y-13242584D02*
X12443801Y-13233060D01*
X12443801Y-13233060D02*
X12434277Y-13214012D01*
X12434277Y-13214012D02*
X12434277Y-13194965D01*
X12434277Y-13194965D02*
X12443801Y-13175917D01*
X12443801Y-13175917D02*
X12462848Y-13166393D01*
X12462848Y-13166393D02*
X12510467Y-13166393D01*
X12510467Y-13166393D02*
X12529515Y-13156869D01*
X12624753Y-13109250D02*
X12624753Y-13309250D01*
X12624753Y-13118774D02*
X12643801Y-13109250D01*
X12643801Y-13109250D02*
X12681896Y-13109250D01*
X12681896Y-13109250D02*
X12700943Y-13118774D01*
X12700943Y-13118774D02*
X12710467Y-13128298D01*
X12710467Y-13128298D02*
X12719991Y-13147346D01*
X12719991Y-13147346D02*
X12719991Y-13204488D01*
X12719991Y-13204488D02*
X12710467Y-13223536D01*
X12710467Y-13223536D02*
X12700943Y-13233060D01*
X12700943Y-13233060D02*
X12681896Y-13242584D01*
X12681896Y-13242584D02*
X12643801Y-13242584D01*
X12643801Y-13242584D02*
X12624753Y-13233060D01*
X12805705Y-13223536D02*
X12815229Y-13233060D01*
X12815229Y-13233060D02*
X12805705Y-13242584D01*
X12805705Y-13242584D02*
X12796182Y-13233060D01*
X12796182Y-13233060D02*
X12805705Y-13223536D01*
X12805705Y-13223536D02*
X12805705Y-13242584D01*
X12805705Y-13118774D02*
X12815229Y-13128298D01*
X12815229Y-13128298D02*
X12805705Y-13137822D01*
X12805705Y-13137822D02*
X12796182Y-13128298D01*
X12796182Y-13128298D02*
X12805705Y-13118774D01*
X12805705Y-13118774D02*
X12805705Y-13137822D01*
X10973500Y-13471100D02*
X11173500Y-13671100D01*
X11173500Y-13471100D02*
X10973500Y-13671100D01*
X11415229Y-13462584D02*
X11539039Y-13462584D01*
X11539039Y-13462584D02*
X11472372Y-13538774D01*
X11472372Y-13538774D02*
X11500943Y-13538774D01*
X11500943Y-13538774D02*
X11519991Y-13548298D01*
X11519991Y-13548298D02*
X11529515Y-13557822D01*
X11529515Y-13557822D02*
X11539039Y-13576869D01*
X11539039Y-13576869D02*
X11539039Y-13624488D01*
X11539039Y-13624488D02*
X11529515Y-13643536D01*
X11529515Y-13643536D02*
X11519991Y-13653060D01*
X11519991Y-13653060D02*
X11500943Y-13662584D01*
X11500943Y-13662584D02*
X11443801Y-13662584D01*
X11443801Y-13662584D02*
X11424753Y-13653060D01*
X11424753Y-13653060D02*
X11415229Y-13643536D01*
X11624753Y-13643536D02*
X11634277Y-13653060D01*
X11634277Y-13653060D02*
X11624753Y-13662584D01*
X11624753Y-13662584D02*
X11615229Y-13653060D01*
X11615229Y-13653060D02*
X11624753Y-13643536D01*
X11624753Y-13643536D02*
X11624753Y-13662584D01*
X11710467Y-13481631D02*
X11719991Y-13472108D01*
X11719991Y-13472108D02*
X11739039Y-13462584D01*
X11739039Y-13462584D02*
X11786658Y-13462584D01*
X11786658Y-13462584D02*
X11805705Y-13472108D01*
X11805705Y-13472108D02*
X11815229Y-13481631D01*
X11815229Y-13481631D02*
X11824753Y-13500679D01*
X11824753Y-13500679D02*
X11824753Y-13519727D01*
X11824753Y-13519727D02*
X11815229Y-13548298D01*
X11815229Y-13548298D02*
X11700943Y-13662584D01*
X11700943Y-13662584D02*
X11824753Y-13662584D01*
X11948562Y-13462584D02*
X11967610Y-13462584D01*
X11967610Y-13462584D02*
X11986658Y-13472108D01*
X11986658Y-13472108D02*
X11996182Y-13481631D01*
X11996182Y-13481631D02*
X12005705Y-13500679D01*
X12005705Y-13500679D02*
X12015229Y-13538774D01*
X12015229Y-13538774D02*
X12015229Y-13586393D01*
X12015229Y-13586393D02*
X12005705Y-13624488D01*
X12005705Y-13624488D02*
X11996182Y-13643536D01*
X11996182Y-13643536D02*
X11986658Y-13653060D01*
X11986658Y-13653060D02*
X11967610Y-13662584D01*
X11967610Y-13662584D02*
X11948562Y-13662584D01*
X11948562Y-13662584D02*
X11929515Y-13653060D01*
X11929515Y-13653060D02*
X11919991Y-13643536D01*
X11919991Y-13643536D02*
X11910467Y-13624488D01*
X11910467Y-13624488D02*
X11900943Y-13586393D01*
X11900943Y-13586393D02*
X11900943Y-13538774D01*
X11900943Y-13538774D02*
X11910467Y-13500679D01*
X11910467Y-13500679D02*
X11919991Y-13481631D01*
X11919991Y-13481631D02*
X11929515Y-13472108D01*
X11929515Y-13472108D02*
X11948562Y-13462584D01*
X12139039Y-13462584D02*
X12158086Y-13462584D01*
X12158086Y-13462584D02*
X12177134Y-13472108D01*
X12177134Y-13472108D02*
X12186658Y-13481631D01*
X12186658Y-13481631D02*
X12196182Y-13500679D01*
X12196182Y-13500679D02*
X12205705Y-13538774D01*
X12205705Y-13538774D02*
X12205705Y-13586393D01*
X12205705Y-13586393D02*
X12196182Y-13624488D01*
X12196182Y-13624488D02*
X12186658Y-13643536D01*
X12186658Y-13643536D02*
X12177134Y-13653060D01*
X12177134Y-13653060D02*
X12158086Y-13662584D01*
X12158086Y-13662584D02*
X12139039Y-13662584D01*
X12139039Y-13662584D02*
X12119991Y-13653060D01*
X12119991Y-13653060D02*
X12110467Y-13643536D01*
X12110467Y-13643536D02*
X12100943Y-13624488D01*
X12100943Y-13624488D02*
X12091420Y-13586393D01*
X12091420Y-13586393D02*
X12091420Y-13538774D01*
X12091420Y-13538774D02*
X12100943Y-13500679D01*
X12100943Y-13500679D02*
X12110467Y-13481631D01*
X12110467Y-13481631D02*
X12119991Y-13472108D01*
X12119991Y-13472108D02*
X12139039Y-13462584D01*
X12291420Y-13662584D02*
X12291420Y-13529250D01*
X12291420Y-13548298D02*
X12300943Y-13538774D01*
X12300943Y-13538774D02*
X12319991Y-13529250D01*
X12319991Y-13529250D02*
X12348563Y-13529250D01*
X12348563Y-13529250D02*
X12367610Y-13538774D01*
X12367610Y-13538774D02*
X12377134Y-13557822D01*
X12377134Y-13557822D02*
X12377134Y-13662584D01*
X12377134Y-13557822D02*
X12386658Y-13538774D01*
X12386658Y-13538774D02*
X12405705Y-13529250D01*
X12405705Y-13529250D02*
X12434277Y-13529250D01*
X12434277Y-13529250D02*
X12453324Y-13538774D01*
X12453324Y-13538774D02*
X12462848Y-13557822D01*
X12462848Y-13557822D02*
X12462848Y-13662584D01*
X12558086Y-13662584D02*
X12558086Y-13529250D01*
X12558086Y-13548298D02*
X12567610Y-13538774D01*
X12567610Y-13538774D02*
X12586658Y-13529250D01*
X12586658Y-13529250D02*
X12615229Y-13529250D01*
X12615229Y-13529250D02*
X12634277Y-13538774D01*
X12634277Y-13538774D02*
X12643801Y-13557822D01*
X12643801Y-13557822D02*
X12643801Y-13662584D01*
X12643801Y-13557822D02*
X12653324Y-13538774D01*
X12653324Y-13538774D02*
X12672372Y-13529250D01*
X12672372Y-13529250D02*
X12700943Y-13529250D01*
X12700943Y-13529250D02*
X12719991Y-13538774D01*
X12719991Y-13538774D02*
X12729515Y-13557822D01*
X12729515Y-13557822D02*
X12729515Y-13662584D01*
X13119991Y-13453060D02*
X12948563Y-13710203D01*
X13377134Y-13462584D02*
X13396182Y-13462584D01*
X13396182Y-13462584D02*
X13415229Y-13472108D01*
X13415229Y-13472108D02*
X13424753Y-13481631D01*
X13424753Y-13481631D02*
X13434277Y-13500679D01*
X13434277Y-13500679D02*
X13443801Y-13538774D01*
X13443801Y-13538774D02*
X13443801Y-13586393D01*
X13443801Y-13586393D02*
X13434277Y-13624488D01*
X13434277Y-13624488D02*
X13424753Y-13643536D01*
X13424753Y-13643536D02*
X13415229Y-13653060D01*
X13415229Y-13653060D02*
X13396182Y-13662584D01*
X13396182Y-13662584D02*
X13377134Y-13662584D01*
X13377134Y-13662584D02*
X13358086Y-13653060D01*
X13358086Y-13653060D02*
X13348563Y-13643536D01*
X13348563Y-13643536D02*
X13339039Y-13624488D01*
X13339039Y-13624488D02*
X13329515Y-13586393D01*
X13329515Y-13586393D02*
X13329515Y-13538774D01*
X13329515Y-13538774D02*
X13339039Y-13500679D01*
X13339039Y-13500679D02*
X13348563Y-13481631D01*
X13348563Y-13481631D02*
X13358086Y-13472108D01*
X13358086Y-13472108D02*
X13377134Y-13462584D01*
X13529515Y-13643536D02*
X13539039Y-13653060D01*
X13539039Y-13653060D02*
X13529515Y-13662584D01*
X13529515Y-13662584D02*
X13519991Y-13653060D01*
X13519991Y-13653060D02*
X13529515Y-13643536D01*
X13529515Y-13643536D02*
X13529515Y-13662584D01*
X13729515Y-13662584D02*
X13615229Y-13662584D01*
X13672372Y-13662584D02*
X13672372Y-13462584D01*
X13672372Y-13462584D02*
X13653325Y-13491155D01*
X13653325Y-13491155D02*
X13634277Y-13510203D01*
X13634277Y-13510203D02*
X13615229Y-13519727D01*
X13805706Y-13481631D02*
X13815229Y-13472108D01*
X13815229Y-13472108D02*
X13834277Y-13462584D01*
X13834277Y-13462584D02*
X13881896Y-13462584D01*
X13881896Y-13462584D02*
X13900944Y-13472108D01*
X13900944Y-13472108D02*
X13910467Y-13481631D01*
X13910467Y-13481631D02*
X13919991Y-13500679D01*
X13919991Y-13500679D02*
X13919991Y-13519727D01*
X13919991Y-13519727D02*
X13910467Y-13548298D01*
X13910467Y-13548298D02*
X13796182Y-13662584D01*
X13796182Y-13662584D02*
X13919991Y-13662584D01*
X14091420Y-13462584D02*
X14053325Y-13462584D01*
X14053325Y-13462584D02*
X14034277Y-13472108D01*
X14034277Y-13472108D02*
X14024753Y-13481631D01*
X14024753Y-13481631D02*
X14005706Y-13510203D01*
X14005706Y-13510203D02*
X13996182Y-13548298D01*
X13996182Y-13548298D02*
X13996182Y-13624488D01*
X13996182Y-13624488D02*
X14005706Y-13643536D01*
X14005706Y-13643536D02*
X14015229Y-13653060D01*
X14015229Y-13653060D02*
X14034277Y-13662584D01*
X14034277Y-13662584D02*
X14072372Y-13662584D01*
X14072372Y-13662584D02*
X14091420Y-13653060D01*
X14091420Y-13653060D02*
X14100944Y-13643536D01*
X14100944Y-13643536D02*
X14110467Y-13624488D01*
X14110467Y-13624488D02*
X14110467Y-13576869D01*
X14110467Y-13576869D02*
X14100944Y-13557822D01*
X14100944Y-13557822D02*
X14091420Y-13548298D01*
X14091420Y-13548298D02*
X14072372Y-13538774D01*
X14072372Y-13538774D02*
X14034277Y-13538774D01*
X14034277Y-13538774D02*
X14015229Y-13548298D01*
X14015229Y-13548298D02*
X14005706Y-13557822D01*
X14005706Y-13557822D02*
X13996182Y-13576869D01*
X14234277Y-13462584D02*
X14253325Y-13462584D01*
X14253325Y-13462584D02*
X14272372Y-13472108D01*
X14272372Y-13472108D02*
X14281896Y-13481631D01*
X14281896Y-13481631D02*
X14291420Y-13500679D01*
X14291420Y-13500679D02*
X14300944Y-13538774D01*
X14300944Y-13538774D02*
X14300944Y-13586393D01*
X14300944Y-13586393D02*
X14291420Y-13624488D01*
X14291420Y-13624488D02*
X14281896Y-13643536D01*
X14281896Y-13643536D02*
X14272372Y-13653060D01*
X14272372Y-13653060D02*
X14253325Y-13662584D01*
X14253325Y-13662584D02*
X14234277Y-13662584D01*
X14234277Y-13662584D02*
X14215229Y-13653060D01*
X14215229Y-13653060D02*
X14205706Y-13643536D01*
X14205706Y-13643536D02*
X14196182Y-13624488D01*
X14196182Y-13624488D02*
X14186658Y-13586393D01*
X14186658Y-13586393D02*
X14186658Y-13538774D01*
X14186658Y-13538774D02*
X14196182Y-13500679D01*
X14196182Y-13500679D02*
X14205706Y-13481631D01*
X14205706Y-13481631D02*
X14215229Y-13472108D01*
X14215229Y-13472108D02*
X14234277Y-13462584D01*
X14377134Y-13462584D02*
X14377134Y-13500679D01*
X14453325Y-13462584D02*
X14453325Y-13500679D01*
X14748563Y-13738774D02*
X14739039Y-13729250D01*
X14739039Y-13729250D02*
X14719991Y-13700679D01*
X14719991Y-13700679D02*
X14710468Y-13681631D01*
X14710468Y-13681631D02*
X14700944Y-13653060D01*
X14700944Y-13653060D02*
X14691420Y-13605441D01*
X14691420Y-13605441D02*
X14691420Y-13567346D01*
X14691420Y-13567346D02*
X14700944Y-13519727D01*
X14700944Y-13519727D02*
X14710468Y-13491155D01*
X14710468Y-13491155D02*
X14719991Y-13472108D01*
X14719991Y-13472108D02*
X14739039Y-13443536D01*
X14739039Y-13443536D02*
X14748563Y-13434012D01*
X14910468Y-13529250D02*
X14910468Y-13662584D01*
X14862848Y-13453060D02*
X14815229Y-13595917D01*
X14815229Y-13595917D02*
X14939039Y-13595917D01*
X15167610Y-13662584D02*
X15167610Y-13462584D01*
X15253325Y-13662584D02*
X15253325Y-13557822D01*
X15253325Y-13557822D02*
X15243801Y-13538774D01*
X15243801Y-13538774D02*
X15224753Y-13529250D01*
X15224753Y-13529250D02*
X15196182Y-13529250D01*
X15196182Y-13529250D02*
X15177134Y-13538774D01*
X15177134Y-13538774D02*
X15167610Y-13548298D01*
X15377134Y-13662584D02*
X15358087Y-13653060D01*
X15358087Y-13653060D02*
X15348563Y-13643536D01*
X15348563Y-13643536D02*
X15339039Y-13624488D01*
X15339039Y-13624488D02*
X15339039Y-13567346D01*
X15339039Y-13567346D02*
X15348563Y-13548298D01*
X15348563Y-13548298D02*
X15358087Y-13538774D01*
X15358087Y-13538774D02*
X15377134Y-13529250D01*
X15377134Y-13529250D02*
X15405706Y-13529250D01*
X15405706Y-13529250D02*
X15424753Y-13538774D01*
X15424753Y-13538774D02*
X15434277Y-13548298D01*
X15434277Y-13548298D02*
X15443801Y-13567346D01*
X15443801Y-13567346D02*
X15443801Y-13624488D01*
X15443801Y-13624488D02*
X15434277Y-13643536D01*
X15434277Y-13643536D02*
X15424753Y-13653060D01*
X15424753Y-13653060D02*
X15405706Y-13662584D01*
X15405706Y-13662584D02*
X15377134Y-13662584D01*
X15558087Y-13662584D02*
X15539039Y-13653060D01*
X15539039Y-13653060D02*
X15529515Y-13634012D01*
X15529515Y-13634012D02*
X15529515Y-13462584D01*
X15710468Y-13653060D02*
X15691420Y-13662584D01*
X15691420Y-13662584D02*
X15653325Y-13662584D01*
X15653325Y-13662584D02*
X15634277Y-13653060D01*
X15634277Y-13653060D02*
X15624753Y-13634012D01*
X15624753Y-13634012D02*
X15624753Y-13557822D01*
X15624753Y-13557822D02*
X15634277Y-13538774D01*
X15634277Y-13538774D02*
X15653325Y-13529250D01*
X15653325Y-13529250D02*
X15691420Y-13529250D01*
X15691420Y-13529250D02*
X15710468Y-13538774D01*
X15710468Y-13538774D02*
X15719991Y-13557822D01*
X15719991Y-13557822D02*
X15719991Y-13576869D01*
X15719991Y-13576869D02*
X15624753Y-13595917D01*
X15796182Y-13653060D02*
X15815230Y-13662584D01*
X15815230Y-13662584D02*
X15853325Y-13662584D01*
X15853325Y-13662584D02*
X15872372Y-13653060D01*
X15872372Y-13653060D02*
X15881896Y-13634012D01*
X15881896Y-13634012D02*
X15881896Y-13624488D01*
X15881896Y-13624488D02*
X15872372Y-13605441D01*
X15872372Y-13605441D02*
X15853325Y-13595917D01*
X15853325Y-13595917D02*
X15824753Y-13595917D01*
X15824753Y-13595917D02*
X15805706Y-13586393D01*
X15805706Y-13586393D02*
X15796182Y-13567346D01*
X15796182Y-13567346D02*
X15796182Y-13557822D01*
X15796182Y-13557822D02*
X15805706Y-13538774D01*
X15805706Y-13538774D02*
X15824753Y-13529250D01*
X15824753Y-13529250D02*
X15853325Y-13529250D01*
X15853325Y-13529250D02*
X15872372Y-13538774D01*
X15948563Y-13738774D02*
X15958087Y-13729250D01*
X15958087Y-13729250D02*
X15977134Y-13700679D01*
X15977134Y-13700679D02*
X15986658Y-13681631D01*
X15986658Y-13681631D02*
X15996182Y-13653060D01*
X15996182Y-13653060D02*
X16005706Y-13605441D01*
X16005706Y-13605441D02*
X16005706Y-13567346D01*
X16005706Y-13567346D02*
X15996182Y-13519727D01*
X15996182Y-13519727D02*
X15986658Y-13491155D01*
X15986658Y-13491155D02*
X15977134Y-13472108D01*
X15977134Y-13472108D02*
X15958087Y-13443536D01*
X15958087Y-13443536D02*
X15948563Y-13434012D01*
X16310468Y-13738774D02*
X16300944Y-13729250D01*
X16300944Y-13729250D02*
X16281896Y-13700679D01*
X16281896Y-13700679D02*
X16272372Y-13681631D01*
X16272372Y-13681631D02*
X16262849Y-13653060D01*
X16262849Y-13653060D02*
X16253325Y-13605441D01*
X16253325Y-13605441D02*
X16253325Y-13567346D01*
X16253325Y-13567346D02*
X16262849Y-13519727D01*
X16262849Y-13519727D02*
X16272372Y-13491155D01*
X16272372Y-13491155D02*
X16281896Y-13472108D01*
X16281896Y-13472108D02*
X16300944Y-13443536D01*
X16300944Y-13443536D02*
X16310468Y-13434012D01*
X16386658Y-13529250D02*
X16386658Y-13662584D01*
X16386658Y-13548298D02*
X16396182Y-13538774D01*
X16396182Y-13538774D02*
X16415230Y-13529250D01*
X16415230Y-13529250D02*
X16443801Y-13529250D01*
X16443801Y-13529250D02*
X16462849Y-13538774D01*
X16462849Y-13538774D02*
X16472372Y-13557822D01*
X16472372Y-13557822D02*
X16472372Y-13662584D01*
X16596182Y-13662584D02*
X16577134Y-13653060D01*
X16577134Y-13653060D02*
X16567611Y-13643536D01*
X16567611Y-13643536D02*
X16558087Y-13624488D01*
X16558087Y-13624488D02*
X16558087Y-13567346D01*
X16558087Y-13567346D02*
X16567611Y-13548298D01*
X16567611Y-13548298D02*
X16577134Y-13538774D01*
X16577134Y-13538774D02*
X16596182Y-13529250D01*
X16596182Y-13529250D02*
X16624753Y-13529250D01*
X16624753Y-13529250D02*
X16643801Y-13538774D01*
X16643801Y-13538774D02*
X16653325Y-13548298D01*
X16653325Y-13548298D02*
X16662849Y-13567346D01*
X16662849Y-13567346D02*
X16662849Y-13624488D01*
X16662849Y-13624488D02*
X16653325Y-13643536D01*
X16653325Y-13643536D02*
X16643801Y-13653060D01*
X16643801Y-13653060D02*
X16624753Y-13662584D01*
X16624753Y-13662584D02*
X16596182Y-13662584D01*
X16719992Y-13529250D02*
X16796182Y-13529250D01*
X16748563Y-13462584D02*
X16748563Y-13634012D01*
X16748563Y-13634012D02*
X16758087Y-13653060D01*
X16758087Y-13653060D02*
X16777134Y-13662584D01*
X16777134Y-13662584D02*
X16796182Y-13662584D01*
X17015230Y-13529250D02*
X17015230Y-13729250D01*
X17015230Y-13538774D02*
X17034277Y-13529250D01*
X17034277Y-13529250D02*
X17072373Y-13529250D01*
X17072373Y-13529250D02*
X17091420Y-13538774D01*
X17091420Y-13538774D02*
X17100944Y-13548298D01*
X17100944Y-13548298D02*
X17110468Y-13567346D01*
X17110468Y-13567346D02*
X17110468Y-13624488D01*
X17110468Y-13624488D02*
X17100944Y-13643536D01*
X17100944Y-13643536D02*
X17091420Y-13653060D01*
X17091420Y-13653060D02*
X17072373Y-13662584D01*
X17072373Y-13662584D02*
X17034277Y-13662584D01*
X17034277Y-13662584D02*
X17015230Y-13653060D01*
X17224754Y-13662584D02*
X17205706Y-13653060D01*
X17205706Y-13653060D02*
X17196182Y-13634012D01*
X17196182Y-13634012D02*
X17196182Y-13462584D01*
X17386658Y-13662584D02*
X17386658Y-13557822D01*
X17386658Y-13557822D02*
X17377135Y-13538774D01*
X17377135Y-13538774D02*
X17358087Y-13529250D01*
X17358087Y-13529250D02*
X17319992Y-13529250D01*
X17319992Y-13529250D02*
X17300944Y-13538774D01*
X17386658Y-13653060D02*
X17367611Y-13662584D01*
X17367611Y-13662584D02*
X17319992Y-13662584D01*
X17319992Y-13662584D02*
X17300944Y-13653060D01*
X17300944Y-13653060D02*
X17291420Y-13634012D01*
X17291420Y-13634012D02*
X17291420Y-13614965D01*
X17291420Y-13614965D02*
X17300944Y-13595917D01*
X17300944Y-13595917D02*
X17319992Y-13586393D01*
X17319992Y-13586393D02*
X17367611Y-13586393D01*
X17367611Y-13586393D02*
X17386658Y-13576869D01*
X17453325Y-13529250D02*
X17529515Y-13529250D01*
X17481896Y-13462584D02*
X17481896Y-13634012D01*
X17481896Y-13634012D02*
X17491420Y-13653060D01*
X17491420Y-13653060D02*
X17510468Y-13662584D01*
X17510468Y-13662584D02*
X17529515Y-13662584D01*
X17672373Y-13653060D02*
X17653325Y-13662584D01*
X17653325Y-13662584D02*
X17615230Y-13662584D01*
X17615230Y-13662584D02*
X17596182Y-13653060D01*
X17596182Y-13653060D02*
X17586658Y-13634012D01*
X17586658Y-13634012D02*
X17586658Y-13557822D01*
X17586658Y-13557822D02*
X17596182Y-13538774D01*
X17596182Y-13538774D02*
X17615230Y-13529250D01*
X17615230Y-13529250D02*
X17653325Y-13529250D01*
X17653325Y-13529250D02*
X17672373Y-13538774D01*
X17672373Y-13538774D02*
X17681896Y-13557822D01*
X17681896Y-13557822D02*
X17681896Y-13576869D01*
X17681896Y-13576869D02*
X17586658Y-13595917D01*
X17853325Y-13662584D02*
X17853325Y-13462584D01*
X17853325Y-13653060D02*
X17834277Y-13662584D01*
X17834277Y-13662584D02*
X17796182Y-13662584D01*
X17796182Y-13662584D02*
X17777135Y-13653060D01*
X17777135Y-13653060D02*
X17767611Y-13643536D01*
X17767611Y-13643536D02*
X17758087Y-13624488D01*
X17758087Y-13624488D02*
X17758087Y-13567346D01*
X17758087Y-13567346D02*
X17767611Y-13548298D01*
X17767611Y-13548298D02*
X17777135Y-13538774D01*
X17777135Y-13538774D02*
X17796182Y-13529250D01*
X17796182Y-13529250D02*
X17834277Y-13529250D01*
X17834277Y-13529250D02*
X17853325Y-13538774D01*
X17929516Y-13738774D02*
X17939039Y-13729250D01*
X17939039Y-13729250D02*
X17958087Y-13700679D01*
X17958087Y-13700679D02*
X17967611Y-13681631D01*
X17967611Y-13681631D02*
X17977135Y-13653060D01*
X17977135Y-13653060D02*
X17986658Y-13605441D01*
X17986658Y-13605441D02*
X17986658Y-13567346D01*
X17986658Y-13567346D02*
X17977135Y-13519727D01*
X17977135Y-13519727D02*
X17967611Y-13491155D01*
X17967611Y-13491155D02*
X17958087Y-13472108D01*
X17958087Y-13472108D02*
X17939039Y-13443536D01*
X17939039Y-13443536D02*
X17929516Y-13434012D01*
M02*
